<svg width="16" height="16" viewBox="0 0 16 16" fill="none" xmlns="http://www.w3.org/2000/svg">
<path fill-rule="evenodd" clip-rule="evenodd" d="M9.68493 1.86179C10.0973 2.41062 10.3151 3.18761 10.2747 3.80626L10.158 5.93696H13.0232C14.0237 5.93696 14.7615 6.92337 14.6126 7.89458L14.6121 7.89776L14.5938 7.99592L13.6051 13.3645C13.4491 14.0691 12.8536 14.5817 12.1475 14.6312L12.144 14.6314L12.0352 14.6352L2.17427 14.6317C1.74077 14.6312 1.38311 14.2914 1.38281 13.8647V7.27524C1.38281 6.84837 1.74064 6.50848 2.17431 6.50848H4.04496L4.91547 6.48871L5.20091 6.47658L5.31073 6.46746L5.32343 6.46532C5.53005 6.41824 5.7328 6.28214 5.92501 6.07448C6.1175 5.8665 6.29391 5.5926 6.44738 5.28305C6.75419 4.66424 6.96256 3.91684 7.02727 3.30542L7.03418 3.20203L7.04934 2.81736L7.06494 2.6316C7.11617 2.15446 7.27762 1.54648 7.87254 1.2947C8.24972 1.13507 8.5999 1.13478 8.90987 1.24917C9.21755 1.36271 9.47785 1.58621 9.68493 1.86179ZM8.54257 2.43522C8.46983 2.38754 8.4159 2.38033 8.37919 2.39057C8.37474 2.39762 8.36836 2.40966 8.36093 2.42835C8.3435 2.47222 8.32413 2.54297 8.3086 2.64777L8.29773 2.73327L8.28541 2.87016L8.26894 3.27887L8.25835 3.42562C8.16568 4.30484 7.86945 5.26984 7.4161 6.05721C6.9644 6.84172 6.3458 7.46781 5.59967 7.63517L5.59564 7.63608L5.50547 7.65234L5.42478 7.66242L5.41953 7.66308L5.32772 7.66967V13.4326L11.9964 13.4356L12.0603 13.434C12.1908 13.424 12.3188 13.3301 12.3762 13.1776L12.3953 13.1124L13.3762 7.78278L13.3764 7.78184L13.3891 7.71615C13.4099 7.57751 13.373 7.44048 13.3048 7.33293C13.2362 7.22474 13.1439 7.15786 13.0629 7.14126L13.0185 7.1371H8.8403L9.03988 3.73139L9.03992 3.73071C9.06599 3.33263 8.94898 2.96097 8.78957 2.70719C8.70968 2.58001 8.62234 2.48752 8.54257 2.43522ZM8.38332 2.38467C8.3838 2.38408 8.38405 2.38383 8.38405 2.38385L8.38332 2.38467ZM4.04879 7.70858L4.09048 7.70746V13.4319L2.61936 13.4313V7.7081L4.04606 7.70862L4.04879 7.70858Z" fill="var(--color-text-secondary, black)" fill-opacity="0.7" style="fill: var(--color-text-secondary, black);fill-opacity:0.7;"/>
</svg>
