<svg width="16" height="16" viewBox="0 0 16 16" fill="none" xmlns="http://www.w3.org/2000/svg">
<path fill-rule="evenodd" clip-rule="evenodd" d="M8.00009 1.66683C7.59106 1.66683 7.23793 1.9125 7.08301 2.26708L6.90835 2.66683H3.00009V13.3335H13.0001V2.66683H9.09184L8.91718 2.26708C8.76225 1.9125 8.40912 1.66683 8.00009 1.66683ZM6.08515 1.3335C6.50633 0.729674 7.20643 0.333496 8.00009 0.333496C8.79375 0.333496 9.49385 0.729674 9.91503 1.3335H14.3334V14.6668H1.66676V1.3335H6.08515ZM7.33343 4.66683H11.3334V6.00016H7.33343V4.66683ZM4.66676 7.3335H11.3334V8.66683H4.66676V7.3335ZM4.66676 10.0002H11.3334V11.3335H4.66676V10.0002Z" fill="#99A2B2" style="fill:#99A2B2;fill:color(display-p3 0.6003 0.6361 0.6980);fill-opacity:1;"/>
<path fill-rule="evenodd" clip-rule="evenodd" d="M4.66699 4.66699H6.00293V6.00293H4.66699V4.66699Z" fill="var(--color-text-tertiary, black)" fill-opacity="0.5" style="fill: var(--color-text-tertiary, black);fill-opacity:0.5;"/>
</svg>
