<svg width="16" height="16" viewBox="0 0 16 16" fill="none" xmlns="http://www.w3.org/2000/svg">
<g clip-path="url(#clip0_8812_1449)">
<path fill-rule="evenodd" clip-rule="evenodd" d="M6.07706 0.666504H9.92308L10.3686 2.81827C10.7468 2.98113 11.1041 3.18182 11.4351 3.41549L13.5856 2.71271L15.5287 5.96394L13.8124 7.42101C13.8324 7.61149 13.8426 7.8046 13.8426 7.99984C13.8426 8.19508 13.8324 8.38819 13.8124 8.57868L15.5287 10.0357L13.5856 13.287L11.4351 12.5842C11.1041 12.8179 10.7468 13.0185 10.3686 13.1814L9.92308 15.3332H6.07706L5.63158 13.1814C5.25331 13.0185 4.89609 12.8179 4.56508 12.5842L2.41456 13.287L0.471441 10.0357L2.18772 8.57867C2.16776 8.38819 2.15756 8.19508 2.15756 7.99984C2.15756 7.8046 2.16776 7.61149 2.18771 7.42101L0.471442 5.96394L2.41456 2.71271L4.56507 3.41549C4.89608 3.18183 5.2533 2.98113 5.63158 2.81827L6.07706 0.666504ZM7.16263 1.99984L6.7881 3.80887L6.43477 3.93457C5.94632 4.10836 5.49802 4.36114 5.10644 4.67641L4.82487 4.90311L3.0127 4.31091L2.19537 5.67848L3.6219 6.88956L3.55511 7.26642C3.51293 7.50439 3.49089 7.74938 3.49089 7.99984C3.49089 8.2503 3.51293 8.49529 3.55511 8.73327L3.6219 9.11013L2.19537 10.3212L3.0127 11.6888L4.82488 11.0966L5.10645 11.3233C5.49803 11.6385 5.94632 11.8913 6.43477 12.0651L6.7881 12.1908L7.16263 13.9998H8.83752L9.21205 12.1908L9.56537 12.0651C10.0538 11.8913 10.5021 11.6385 10.8937 11.3233L11.1753 11.0966L12.9874 11.6888L13.8048 10.3212L12.3782 9.11013L12.445 8.73327C12.4872 8.49529 12.5093 8.2503 12.5093 7.99984C12.5093 7.74938 12.4872 7.50439 12.445 7.26641L12.3782 6.88956L13.8048 5.67847L12.9874 4.31091L11.1753 4.90311L10.8937 4.67641C10.5021 4.36114 10.0538 4.10836 9.56537 3.93457L9.21205 3.80887L8.83752 1.99984H7.16263ZM8.00007 6.6665C7.26369 6.6665 6.66674 7.26346 6.66674 7.99984C6.66674 8.73622 7.26369 9.33317 8.00007 9.33317C8.73645 9.33317 9.3334 8.73622 9.3334 7.99984C9.3334 7.26346 8.73645 6.6665 8.00007 6.6665ZM5.3334 7.99984C5.3334 6.52708 6.52731 5.33317 8.00007 5.33317C9.47283 5.33317 10.6667 6.52708 10.6667 7.99984C10.6667 9.4726 9.47283 10.6665 8.00007 10.6665C6.52731 10.6665 5.3334 9.4726 5.3334 7.99984Z" fill="#1C66E5" style="fill:#1C66E5;fill:color(display-p3 0.1098 0.4000 0.8980);fill-opacity:1;"/>
</g>
<defs>
<clipPath id="clip0_8812_1449">
<rect width="16" height="16" fill="white" style="fill:white;fill-opacity:1;"/>
</clipPath>
</defs>
</svg>
