<svg width="16" height="16" viewBox="0 0 16 16" fill="none" xmlns="http://www.w3.org/2000/svg">
<g clip-path="url(#clip0_8812_1455)">
<path fill-rule="evenodd" clip-rule="evenodd" d="M7.33366 2.03694C4.33369 2.36857 2.00033 4.91196 2.00033 8.00033C2.00033 11.314 4.68662 14.0003 8.00033 14.0003C11.0887 14.0003 13.6321 11.667 13.9637 8.66699H7.33366V2.03694ZM8.66699 2.03694V7.33366H13.9637C13.6563 4.55258 11.4481 2.34438 8.66699 2.03694ZM0.666992 8.00033C0.666992 3.95024 3.95024 0.666992 8.00033 0.666992C12.0504 0.666992 15.3337 3.95024 15.3337 8.00033C15.3337 12.0504 12.0504 15.3337 8.00033 15.3337C3.95024 15.3337 0.666992 12.0504 0.666992 8.00033Z" fill="#99A2B2" style="fill:#99A2B2;fill:color(display-p3 0.6003 0.6361 0.6980);fill-opacity:1;"/>
</g>
<defs>
<clipPath id="clip0_8812_1455">
<rect width="16" height="16" fill="white" style="fill:white;fill-opacity:1;"/>
</clipPath>
</defs>
</svg>
