<svg width="18" height="19" viewBox="0 0 18 19" fill="none" xmlns="http://www.w3.org/2000/svg">
<path d="M1.12891 8.52537C0.753611 7.43971 1.22871 6.27371 2.15272 5.59092C3.22112 4.80143 4.29692 4 4.29692 4L7.00711 7.18733L5.2142 9.29834C5.69246 10.1477 6.20474 10.8463 6.92799 11.5693C7.65498 12.296 8.35247 12.7959 9.20708 13.2752L11.3115 11.4902L14.5 14.1995L12.9023 16.3607C12.2249 17.277 11.0679 17.743 9.99011 17.3722C7.99786 16.6868 6.12676 15.5494 4.53664 13.9598C2.95108 12.3748 1.81517 10.5105 1.12891 8.52537Z" stroke="#99A2B2" style="stroke:#99A2B2;stroke:color(display-p3 0.6003 0.6361 0.6980);stroke-opacity:1;" stroke-width="1.33"/>
<circle cx="12.75" cy="5.51504" r="1.52135" stroke="#99A2B2" style="stroke:#99A2B2;stroke:color(display-p3 0.6003 0.6361 0.6980);stroke-opacity:1;" stroke-width="1.33"/>
<path d="M9.5 3.5501L12.75 1.6001L16 3.5501V7.4501L12.75 9.4001L9.5 7.4501V3.5501Z" stroke="#99A2B2" style="stroke:#99A2B2;stroke:color(display-p3 0.6003 0.6361 0.6980);stroke-opacity:1;" stroke-width="1.33"/>
</svg>
