<svg width="18" height="12" viewBox="0 0 18 12" fill="none" xmlns="http://www.w3.org/2000/svg">
<g clip-path="url(#clip0_8734_459154)">
<path d="M18 0H0V11.25H18V0Z" fill="#DE2910" style="fill:#DE2910;fill:color(display-p3 0.8706 0.1608 0.0627);fill-opacity:1;"/>
<path d="M3.0001 0.887695L4.0579 4.10105L1.2883 2.11513H4.7119L1.9423 4.10105L3.0001 0.887695Z" fill="#FFDE00" style="fill:#FFDE00;fill:color(display-p3 1.0000 0.8706 0.0000);fill-opacity:1;"/>
<path d="M5.4855 1.19185L6.2349 0.342773L6.1347 1.46481L5.5479 0.499089L6.5979 0.939616L5.4855 1.19185Z" fill="#FFDE00" style="fill:#FFDE00;fill:color(display-p3 1.0000 0.8706 0.0000);fill-opacity:1;"/>
<path d="M6.60599 2.15524L7.63079 1.65964L7.09739 2.65497L6.93599 1.54004L7.73039 2.34826L6.60599 2.15524Z" fill="#FFDE00" style="fill:#FFDE00;fill:color(display-p3 1.0000 0.8706 0.0000);fill-opacity:1;"/>
<path d="M6.62299 3.68503L7.76299 3.64477L6.86479 4.33931L7.17799 3.25635L7.56919 4.31385L6.62299 3.68503Z" fill="#FFDE00" style="fill:#FFDE00;fill:color(display-p3 1.0000 0.8706 0.0000);fill-opacity:1;"/>
<path d="M5.53152 4.66315L6.59951 5.06045L5.49911 5.35887L6.21191 4.479L6.15851 5.604L5.53152 4.66315Z" fill="#FFDE00" style="fill:#FFDE00;fill:color(display-p3 1.0000 0.8706 0.0000);fill-opacity:1;"/>
</g>
<defs>
<clipPath id="clip0_8734_459154">
<rect width="18" height="11.25" fill="white" style="fill:white;fill-opacity:1;"/>
</clipPath>
</defs>
</svg>
