<svg width="20" height="20" viewBox="0 0 20 20" fill="none" xmlns="http://www.w3.org/2000/svg">
<path fill-rule="evenodd" clip-rule="evenodd" d="M5 5.06251C3.5736 5.35206 2.5 6.61315 2.5 8.125C2.5 9.63685 3.5736 10.8979 5 11.1875V17.5H6.25V11.1875C7.6764 10.8979 8.75 9.63685 8.75 8.125C8.75 6.61315 7.6764 5.35206 6.25 5.06251V2.5H5V5.06251ZM5 9.89331C5.19549 9.9624 5.40585 10 5.625 10C5.84415 10 6.05451 9.9624 6.25 9.89331C6.97825 9.63591 7.5 8.94139 7.5 8.125C7.5 7.30861 6.97825 6.61409 6.25 6.35669C6.05451 6.2876 5.84415 6.25 5.625 6.25C5.40585 6.25 5.19549 6.2876 5 6.35669C4.27175 6.61409 3.75 7.30861 3.75 8.125C3.75 8.94139 4.27175 9.63591 5 9.89331Z" fill="white" fill-opacity="0.9" style="fill:white;fill-opacity:0.9;"/>
<path fill-rule="evenodd" clip-rule="evenodd" d="M15 14.9375C16.4264 14.6479 17.5 13.3868 17.5 11.875C17.5 10.3632 16.4264 9.10206 15 8.81251V2.5L13.75 2.5V8.81251C12.3236 9.10206 11.25 10.3632 11.25 11.875C11.25 13.3868 12.3236 14.6479 13.75 14.9375V17.5H15V14.9375ZM15 10.1067C14.8045 10.0376 14.5941 10 14.375 10C14.1559 10 13.9455 10.0376 13.75 10.1067C13.0218 10.3641 12.5 11.0586 12.5 11.875C12.5 12.6914 13.0218 13.3859 13.75 13.6433C13.9455 13.7124 14.1559 13.75 14.375 13.75C14.5941 13.75 14.8045 13.7124 15 13.6433C15.7282 13.3859 16.25 12.6914 16.25 11.875C16.25 11.0586 15.7282 10.3641 15 10.1067Z" fill="white" fill-opacity="0.9" style="fill:white;fill-opacity:0.9;"/>
</svg>
