<svg width="24" height="24" viewBox="0 0 24 24" fill="none" xmlns="http://www.w3.org/2000/svg">
<rect width="24" height="24" rx="4" fill="#BBD3FB" fill-opacity="0.5" style="fill:#BBD3FB;fill:color(display-p3 0.7333 0.8275 0.9843);fill-opacity:0.5;"/>
<mask id="path-2-inside-1_8734_459214" fill="white">
<path d="M12.0012 5.3335C16.0513 5.3335 19.3352 8.31859 19.3352 12.0005C19.335 15.6822 16.0512 18.6665 12.0012 18.6665C10.7403 18.6665 9.55416 18.3764 8.51782 17.8667L5.26782 18.6646L6.01782 15.853C5.16857 14.765 4.66829 13.4361 4.66821 12.0005C4.66821 8.31869 7.95128 5.33366 12.0012 5.3335Z"/>
</mask>
<path d="M12.0012 5.3335V4.00016H12.0012L12.0012 5.3335ZM19.3352 12.0005L20.6685 12.0006V12.0005H19.3352ZM12.0012 18.6665L12.0012 19.9998H12.0012V18.6665ZM8.51782 17.8667L9.10623 16.6702L8.67099 16.4562L8.19994 16.5718L8.51782 17.8667ZM5.26782 18.6646L3.97954 18.3209L3.39926 20.4962L5.58571 19.9594L5.26782 18.6646ZM6.01782 15.853L7.30611 16.1967L7.47711 15.5556L7.06888 15.0326L6.01782 15.853ZM4.66821 12.0005H3.33488V12.0006L4.66821 12.0005ZM12.0012 5.3335V6.66683C15.4374 6.66683 18.0019 9.17178 18.0019 12.0005H19.3352H20.6685C20.6685 7.4654 16.6652 4.00016 12.0012 4.00016V5.3335ZM19.3352 12.0005L18.0019 12.0004C18.0017 14.8289 15.4375 17.3332 12.0012 17.3332V18.6665V19.9998C16.6649 19.9998 20.6683 16.5356 20.6685 12.0006L19.3352 12.0005ZM12.0012 18.6665L12.0013 17.3332C10.9457 17.3331 9.96074 17.0905 9.10623 16.6702L8.51782 17.8667L7.92941 19.0632C9.14757 19.6623 10.5348 19.9998 12.0012 19.9998L12.0012 18.6665ZM8.51782 17.8667L8.19994 16.5718L4.94994 17.3697L5.26782 18.6646L5.58571 19.9594L8.83571 19.1616L8.51782 17.8667ZM5.26782 18.6646L6.55611 19.0082L7.30611 16.1967L6.01782 15.853L4.72954 15.5094L3.97954 18.3209L5.26782 18.6646ZM6.01782 15.853L7.06888 15.0326C6.38899 14.1616 6.00161 13.1175 6.00155 12.0004L4.66821 12.0005L3.33488 12.0006C3.33497 13.7548 3.94814 15.3684 4.96677 16.6734L6.01782 15.853ZM4.66821 12.0005H6.00155C6.00155 9.1717 8.56535 6.66697 12.0013 6.66683L12.0012 5.3335L12.0012 4.00016C7.33721 4.00035 3.33488 7.46567 3.33488 12.0005H4.66821Z" fill="#1C66E5" style="fill:#1C66E5;fill:color(display-p3 0.1098 0.4000 0.8980);fill-opacity:1;" mask="url(#path-2-inside-1_8734_459214)"/>
<path d="M8.66669 10.666H15.3334" stroke="#1C66E5" style="stroke:#1C66E5;stroke:color(display-p3 0.1098 0.4000 0.8980);stroke-opacity:1;" stroke-width="1.33333"/>
<path d="M8.66669 13.9995H12.6667" stroke="#1C66E5" style="stroke:#1C66E5;stroke:color(display-p3 0.1098 0.4000 0.8980);stroke-opacity:1;" stroke-width="1.33333"/>
</svg>
