<svg width="23" height="22" viewBox="0 0 23 22" fill="none" xmlns="http://www.w3.org/2000/svg">
<circle cx="10.2343" cy="12.0874" r="8.63451" transform="rotate(-6.87348 10.2343 12.0874)" fill="url(#paint0_linear_8734_459072)"/>
<mask id="mask0_8734_459072" style="mask-type:alpha" maskUnits="userSpaceOnUse" x="1" y="3" width="18" height="18">
<circle cx="10.2343" cy="12.0928" r="8.63451" transform="rotate(-6.87348 10.2343 12.0928)" fill="url(#paint1_linear_8734_459072)"/>
</mask>
<g mask="url(#mask0_8734_459072)">
<g filter="url(#filter0_f_8734_459072)">
<path d="M5.24268 19.3972C5.24268 19.3972 7.24789 19.1165 7.69718 18.6797C7.69718 18.9791 8.15872 19.5197 8.756 19.9731C9.35328 20.4266 10.1813 20.8215 10.1813 20.8215L6.84929 21.0694L5.24268 19.3972Z" fill="#0D8766" style="fill:#0D8766;fill:color(display-p3 0.0499 0.5285 0.4006);fill-opacity:1;"/>
</g>
<g opacity="0.35" filter="url(#filter1_f_8734_459072)">
<path fill-rule="evenodd" clip-rule="evenodd" d="M17.7665 17.24C18.3383 12.5088 13.9992 8.1042 8.07567 7.40275C7.29275 7.31006 6.52145 7.28928 5.77084 7.32945C6.60634 3.57773 9.91784 0.817259 13.9559 0.843954C18.7201 0.875478 22.6889 4.77457 22.821 9.55281C22.9205 13.1548 20.8113 16.2274 17.7259 17.5086C17.7401 17.4195 17.7556 17.3302 17.7665 17.24Z" fill="var(-----White-1, white)" style="fill: var(-----White-1, white);fill-opacity:1;"/>
</g>
<g opacity="0.3" filter="url(#filter2_f_8734_459072)">
<path fill-rule="evenodd" clip-rule="evenodd" d="M4.69093 4.79044C3.87198 9.34794 6.198 13.9852 10.4773 15.7504C12.7455 16.686 15.164 16.6485 17.3091 15.8334C15.6507 20.1188 11.4761 22.8368 7.30371 22.0791C2.60286 21.2253 -0.31293 16.2835 0.791618 11.0423C1.34323 8.42542 2.79255 6.22805 4.69093 4.79044Z" fill="#07785B" style="fill:#07785B;fill:color(display-p3 0.0257 0.4687 0.3565);fill-opacity:1;"/>
</g>
<g opacity="0.5" filter="url(#filter3_f_8734_459072)">
<path d="M-0.375488 12.0879C1.64487 15.1606 4.87824 17.563 8.83176 18.5546C12.5626 19.4903 16.2603 18.9995 19.2889 17.4431C17.0451 20.6629 13.6187 22.7099 9.90114 22.6209C4.55331 22.4926 0.362527 17.9904 -0.375488 12.0879Z" fill="#07785B" style="fill:#07785B;fill:color(display-p3 0.0257 0.4687 0.3565);fill-opacity:1;"/>
</g>
<g opacity="0.4" filter="url(#filter4_f_8734_459072)">
<path d="M21.6748 7.52246C19.6541 4.93387 16.5133 2.91753 12.7431 2.09829C9.18006 1.32417 5.70063 1.7611 2.8938 3.09621C4.89689 0.35685 8.06281 -1.39526 11.5817 -1.33831C16.6392 -1.25625 20.7626 2.53227 21.6748 7.52246Z" fill="#39B716" style="fill:#39B716;fill:color(display-p3 0.2235 0.7179 0.0854);fill-opacity:1;"/>
</g>
</g>
<path d="M14.1904 11.4666L13.4843 12.5191C13.3634 12.6993 13.4321 12.9449 13.6289 13.0362L14.8113 13.5849" stroke="var(-----White-1, white)" style="stroke: var(-----White-1, white);stroke-opacity:1;" stroke-width="1.76577" stroke-linecap="round"/>
<path d="M8.2644 13.5854L9.07582 15.7009" stroke="var(-----White-1, white)" style="stroke: var(-----White-1, white);stroke-opacity:1;" stroke-width="1.76577" stroke-linecap="round"/>
<g filter="url(#filter5_f_8734_459072)">
<path d="M3.64896 14.1385L7.89199 18.5056C7.89199 18.5056 7.57509 19.0279 5.48409 19.4677C4.07301 19.7646 2.61652 19.7106 1.81853 19.6442C1.50779 19.6183 1.32917 19.2954 1.45709 19.011L3.64896 14.1385Z" fill="url(#paint2_linear_8734_459072)"/>
</g>
<mask id="mask1_8734_459072" style="mask-type:alpha" maskUnits="userSpaceOnUse" x="1" y="14" width="7" height="6">
<path d="M3.64628 14.1439L7.8893 18.511C7.8893 18.511 7.57241 19.0333 5.4814 19.4731C4.07032 19.7699 2.61384 19.716 1.81584 19.6496C1.5051 19.6237 1.32649 19.3008 1.45441 19.0164L3.64628 14.1439Z" fill="url(#paint3_linear_8734_459072)"/>
</mask>
<g mask="url(#mask1_8734_459072)">
<g opacity="0.8" filter="url(#filter6_f_8734_459072)">
<path d="M0.226929 18.9108C0.226929 18.9108 3.3906 19.5781 6.89441 18.7798C7.01594 19.0869 5.62604 20.8347 3.39129 20.8347C0.123458 20.8347 0.226929 18.9108 0.226929 18.9108Z" fill="#0C6B53" style="fill:#0C6B53;fill:color(display-p3 0.0477 0.4206 0.3244);fill-opacity:1;"/>
</g>
<g opacity="0.8" filter="url(#filter7_f_8734_459072)">
<path d="M2.8136 16.1209C3.17399 16.5721 2.51424 18.9955 1.42867 19.4287C0.233932 18.5882 0.221062 18.2177 1.00066 16.8992C1.78955 15.5651 2.4532 15.6697 2.8136 16.1209Z" fill="#8EE386" style="fill:#8EE386;fill:color(display-p3 0.5569 0.8902 0.5255);fill-opacity:1;"/>
</g>
</g>
<path d="M19.0712 0.548749C19.6089 1.87462 20.6991 2.89941 22.0556 3.35427C20.7297 3.89199 19.7049 4.98212 19.2501 6.33865C18.7124 5.01278 17.6222 3.98799 16.2657 3.53314C17.5916 2.99541 18.6164 1.90529 19.0712 0.548749Z" fill="var(-----White-1, white)" style="fill: var(-----White-1, white);fill-opacity:1;"/>
<defs>
<filter id="filter0_f_8734_459072" x="3.83006" y="17.2671" width="7.76384" height="5.21489" filterUnits="userSpaceOnUse" color-interpolation-filters="sRGB">
<feFlood flood-opacity="0" result="BackgroundImageFix"/>
<feBlend mode="normal" in="SourceGraphic" in2="BackgroundImageFix" result="shape"/>
<feGaussianBlur stdDeviation="0.70631" result="effect1_foregroundBlur_8734_459072"/>
</filter>
<filter id="filter1_f_8734_459072" x="2.23932" y="-2.6878" width="24.1166" height="23.7281" filterUnits="userSpaceOnUse" color-interpolation-filters="sRGB">
<feFlood flood-opacity="0" result="BackgroundImageFix"/>
<feBlend mode="normal" in="SourceGraphic" in2="BackgroundImageFix" result="shape"/>
<feGaussianBlur stdDeviation="1.76577" result="effect1_foregroundBlur_8734_459072"/>
</filter>
<filter id="filter2_f_8734_459072" x="-5.09262" y="-0.859951" width="28.0522" height="28.716" filterUnits="userSpaceOnUse" color-interpolation-filters="sRGB">
<feFlood flood-opacity="0" result="BackgroundImageFix"/>
<feBlend mode="normal" in="SourceGraphic" in2="BackgroundImageFix" result="shape"/>
<feGaussianBlur stdDeviation="2.82524" result="effect1_foregroundBlur_8734_459072"/>
</filter>
<filter id="filter3_f_8734_459072" x="-3.90704" y="8.55634" width="26.7274" height="17.5987" filterUnits="userSpaceOnUse" color-interpolation-filters="sRGB">
<feFlood flood-opacity="0" result="BackgroundImageFix"/>
<feBlend mode="normal" in="SourceGraphic" in2="BackgroundImageFix" result="shape"/>
<feGaussianBlur stdDeviation="1.76577" result="effect1_foregroundBlur_8734_459072"/>
</filter>
<filter id="filter4_f_8734_459072" x="-0.637751" y="-4.87139" width="25.8441" height="15.9254" filterUnits="userSpaceOnUse" color-interpolation-filters="sRGB">
<feFlood flood-opacity="0" result="BackgroundImageFix"/>
<feBlend mode="normal" in="SourceGraphic" in2="BackgroundImageFix" result="shape"/>
<feGaussianBlur stdDeviation="1.76577" result="effect1_foregroundBlur_8734_459072"/>
</filter>
<filter id="filter5_f_8734_459072" x="0.00266349" y="12.7261" width="9.30192" height="8.38286" filterUnits="userSpaceOnUse" color-interpolation-filters="sRGB">
<feFlood flood-opacity="0" result="BackgroundImageFix"/>
<feBlend mode="normal" in="SourceGraphic" in2="BackgroundImageFix" result="shape"/>
<feGaussianBlur stdDeviation="0.70631" result="effect1_foregroundBlur_8734_459072"/>
</filter>
<filter id="filter6_f_8734_459072" x="-1.18606" y="17.3672" width="9.50041" height="4.87993" filterUnits="userSpaceOnUse" color-interpolation-filters="sRGB">
<feFlood flood-opacity="0" result="BackgroundImageFix"/>
<feBlend mode="normal" in="SourceGraphic" in2="BackgroundImageFix" result="shape"/>
<feGaussianBlur stdDeviation="0.70631" result="effect1_foregroundBlur_8734_459072"/>
</filter>
<filter id="filter7_f_8734_459072" x="-0.947654" y="14.4033" width="5.27287" height="6.43803" filterUnits="userSpaceOnUse" color-interpolation-filters="sRGB">
<feFlood flood-opacity="0" result="BackgroundImageFix"/>
<feBlend mode="normal" in="SourceGraphic" in2="BackgroundImageFix" result="shape"/>
<feGaussianBlur stdDeviation="0.70631" result="effect1_foregroundBlur_8734_459072"/>
</filter>
<linearGradient id="paint0_linear_8734_459072" x1="-1.92604" y1="21.0478" x2="23.0424" y2="4.65695" gradientUnits="userSpaceOnUse">
<stop stop-color="#14CCE1" style="stop-color:#14CCE1;stop-color:color(display-p3 0.0795 0.8018 0.8816);stop-opacity:1;"/>
<stop offset="1" stop-color="#99E222" style="stop-color:#99E222;stop-color:color(display-p3 0.5991 0.8874 0.1352);stop-opacity:1;"/>
</linearGradient>
<linearGradient id="paint1_linear_8734_459072" x1="-1.92604" y1="21.0532" x2="23.0424" y2="4.66232" gradientUnits="userSpaceOnUse">
<stop stop-color="#14CCE1" style="stop-color:#14CCE1;stop-color:color(display-p3 0.0795 0.8018 0.8816);stop-opacity:1;"/>
<stop offset="1" stop-color="#99E222" style="stop-color:#99E222;stop-color:color(display-p3 0.5991 0.8874 0.1352);stop-opacity:1;"/>
</linearGradient>
<linearGradient id="paint2_linear_8734_459072" x1="4.70749" y1="16.5391" x2="1.20191" y2="19.5136" gradientUnits="userSpaceOnUse">
<stop stop-color="#2AB48C" style="stop-color:#2AB48C;stop-color:color(display-p3 0.1647 0.7059 0.5490);stop-opacity:1;"/>
<stop offset="1" stop-color="#32D0C0" style="stop-color:#32D0C0;stop-color:color(display-p3 0.1944 0.8151 0.7531);stop-opacity:1;"/>
</linearGradient>
<linearGradient id="paint3_linear_8734_459072" x1="4.70481" y1="16.5445" x2="1.19923" y2="19.519" gradientUnits="userSpaceOnUse">
<stop stop-color="#2AB48C" style="stop-color:#2AB48C;stop-color:color(display-p3 0.1647 0.7059 0.5490);stop-opacity:1;"/>
<stop offset="1" stop-color="#32D0C0" style="stop-color:#32D0C0;stop-color:color(display-p3 0.1944 0.8151 0.7531);stop-opacity:1;"/>
</linearGradient>
</defs>
</svg>
