<svg width="78" height="165" viewBox="0 0 78 165" fill="none" xmlns="http://www.w3.org/2000/svg">
<path d="M77.5 4.33007L70 -4.87745e-05L70 8.6602L77.5 4.33007ZM0 163.33L3.34581e-08 164.08L27.1461 164.08L27.1461 163.33L27.1461 162.58L-3.34581e-08 162.58L0 163.33ZM35.1461 155.33L35.8961 155.33L35.8961 12.3301L35.1461 12.3301L34.3961 12.3301L34.3961 155.33L35.1461 155.33ZM43.1461 4.33008L43.1461 5.08008L70.75 5.08008L70.75 4.33008L70.75 3.58008L43.1461 3.58008L43.1461 4.33008ZM35.1461 12.3301L35.8961 12.3301C35.8961 8.32602 39.142 5.08008 43.1461 5.08008L43.1461 4.33008L43.1461 3.58008C38.3136 3.58008 34.3961 7.49759 34.3961 12.3301L35.1461 12.3301ZM27.1461 163.33L27.1461 164.08C31.9786 164.08 35.8961 160.163 35.8961 155.33L35.1461 155.33L34.3961 155.33C34.3961 159.334 31.1502 162.58 27.1461 162.58L27.1461 163.33Z" fill="#9EACBE" style="fill:#9EACBE;fill:color(display-p3 0.6196 0.6745 0.7451);fill-opacity:1;"/>
</svg>
