<svg width="78" height="126" viewBox="0 0 78 126" fill="none" xmlns="http://www.w3.org/2000/svg">
<path d="M77.5 120.75L70 125.08L70 116.42L77.5 120.75ZM0 0.75L3.34581e-08 0L27.1461 1.16267e-06L27.1461 0.750001L27.1461 1.5L-3.34581e-08 1.5L0 0.75ZM35.1461 8.75L35.8961 8.75L35.8961 112.75L35.1461 112.75L34.3961 112.75L34.3961 8.75L35.1461 8.75ZM43.1461 120.75L43.1461 120L70.75 120L70.75 120.75L70.75 121.5L43.1461 121.5L43.1461 120.75ZM35.1461 112.75L35.8961 112.75C35.8961 116.754 39.142 120 43.1461 120L43.1461 120.75L43.1461 121.5C38.3136 121.5 34.3961 117.582 34.3961 112.75L35.1461 112.75ZM27.1461 0.750001L27.1461 1.16267e-06C31.9786 1.36965e-06 35.8961 3.91751 35.8961 8.75L35.1461 8.75L34.3961 8.75C34.3961 4.74594 31.1502 1.5 27.1461 1.5L27.1461 0.750001Z" fill="#9EACBE" style="fill:#9EACBE;fill:color(display-p3 0.6196 0.6745 0.7451);fill-opacity:1;"/>
</svg>
