<svg width="24" height="24" viewBox="0 0 24 24" fill="none" xmlns="http://www.w3.org/2000/svg">
<path d="M19.7574 10L19.9252 12.3056C20.0345 13.8071 20.6256 14.9909 21.5435 15.5465L22.953 16.3997L21.2402 17.2528C20.1247 17.8084 19.1127 18.9922 18.4696 20.4937L17.482 22.7993L17.3142 20.4937C17.2049 18.9922 16.6138 17.8084 15.6959 17.2528L14.2864 16.3997L15.9992 15.5465C17.1147 14.9909 18.1267 13.8071 18.7698 12.3056L19.7574 10Z" fill="var(--color-text-ai-01-default, #4B8BEB)" style="fill:#4B8BEB;fill:color(display-p3 0.2941 0.5451 0.9216);fill-opacity:1;"/>
<path d="M9.14856 1L9.3809 4.19241C9.5322 6.27136 10.3507 7.91048 11.6216 8.67977L13.5733 9.86106L11.2016 11.0424C9.65715 11.8116 8.25586 13.4508 7.36538 15.5297L5.99796 18.7221L5.76562 15.5297C5.61431 13.4508 4.79583 11.8116 3.52489 11.0424L1.57326 9.86106L3.94491 8.67976C5.48937 7.91048 6.89065 6.27136 7.78114 4.19241L9.14856 1Z" fill="var(--color-text-ai-01-default, #4B8BEB)" style="fill:#4B8BEB;fill:color(display-p3 0.2941 0.5451 0.9216);fill-opacity:1;"/>
</svg>
