<svg width="24" height="24" viewBox="0 0 24 24" fill="none" xmlns="http://www.w3.org/2000/svg">
<path d="M6.60677 10L6.77457 12.3056C6.88385 13.8071 7.47497 14.9909 8.39287 15.5465L9.80239 16.3997L8.08953 17.2528C6.97408 17.8084 5.96205 18.9922 5.31892 20.4937L4.33134 22.7993L4.16354 20.4937C4.05426 18.9922 3.46313 17.8084 2.54523 17.2528L1.13572 16.3997L2.84858 15.5465C3.96402 14.9909 4.97606 13.8071 5.61919 12.3056L6.60677 10Z" fill="var(--color-text-ai-02-deafult, #7A6EE5)" style="fill:#7A6EE5;fill:color(display-p3 0.4784 0.4314 0.8980);fill-opacity:1;"/>
<path d="M18.1562 1L18.3886 4.19241C18.5399 6.27136 19.3584 7.91048 20.6293 8.67977L22.5809 9.86106L20.2093 11.0424C18.6648 11.8116 17.2636 13.4508 16.3731 15.5297L15.0056 18.7221L14.7733 15.5297C14.622 13.4508 13.8035 11.8116 12.5326 11.0424L10.5809 9.86106L12.9526 8.67976C14.4971 7.91048 15.8983 6.27136 16.7888 4.19241L18.1562 1Z" fill="var(--color-text-ai-02-deafult, #7A6EE5)" style="fill:#7A6EE5;fill:color(display-p3 0.4784 0.4314 0.8980);fill-opacity:1;"/>
</svg>
