<svg width="24" height="24" viewBox="0 0 24 24" fill="none" xmlns="http://www.w3.org/2000/svg">
<path d="M16.2884 11.2007L16.4562 13.5063C16.5655 15.0078 17.1566 16.1916 18.0745 16.7472L19.484 17.6003L17.7712 18.4535C16.6557 19.0091 15.6437 20.1929 15.0006 21.6944L14.013 24L13.8452 21.6944C13.7359 20.1929 13.1448 19.0091 12.2269 18.4535L10.8174 17.6003L12.5302 16.7472C13.6457 16.1916 14.6577 15.0078 15.3008 13.5063L16.2884 11.2007Z" fill="var(--color-text-brand-default, #00B6C3)" style="fill:#00B6C3;fill:color(display-p3 0.0000 0.7137 0.7647);fill-opacity:1;"/>
<path d="M9.15063 1.13916L9.38298 4.33157C9.53428 6.41052 10.3528 8.04964 11.6237 8.81893L13.5753 10.0002L11.2037 11.1815C9.65922 11.9508 8.25794 13.5899 7.36745 15.6689L6.00003 18.8613L5.76769 15.6689C5.61639 13.5899 4.79791 11.9508 3.52697 11.1815L1.57533 10.0002L3.94699 8.81892C5.49145 8.04964 6.89273 6.41052 7.78322 4.33157L9.15063 1.13916Z" fill="var(--color-text-brand-default, #00B6C3)" style="fill:#00B6C3;fill:color(display-p3 0.0000 0.7137 0.7647);fill-opacity:1;"/>
</svg>
