<svg width="16" height="16" viewBox="0 0 16 16" fill="none" xmlns="http://www.w3.org/2000/svg">
<path d="M7.54252 2.07641C8.84427 0.774661 10.9548 0.774661 12.2566 2.07641C13.5583 3.37816 13.5583 5.48871 12.2566 6.79045L7.07112 11.9759C6.29007 12.757 5.02374 12.757 4.24269 11.9759C3.46164 11.1949 3.46164 9.92852 4.24269 9.14748L9.42814 3.96203L10.3709 4.90484L5.1855 10.0903C4.92515 10.3506 4.92515 10.7727 5.1855 11.0331C5.44585 11.2934 5.86796 11.2934 6.12831 11.0331L11.3138 5.84764C12.0948 5.0666 12.0948 3.80027 11.3138 3.01922C10.5327 2.23817 9.26638 2.23817 8.48533 3.01922L3.29988 8.20467C1.99813 9.50641 1.99813 11.617 3.29988 12.9187C4.60163 14.2205 6.71218 14.2205 8.01392 12.9187L13.6708 7.26186L14.6136 8.20467L8.95673 13.8615C7.13429 15.684 4.17952 15.684 2.35707 13.8615C0.534623 12.0391 0.534622 9.0843 2.35707 7.26186L7.54252 2.07641Z" fill="black" fill-opacity="0.9" style="fill:black;fill-opacity:0.9;"/>
</svg>
