<svg width="28" height="28" viewBox="0 0 28 28" fill="none" xmlns="http://www.w3.org/2000/svg">
<g clip-path="url(#clip0_8734_459545)">
<path d="M14 0C21.732 0 28 6.26801 28 14C28 21.732 21.732 28 14 28C6.26801 28 0 21.732 0 14C0 6.26801 6.26801 0 14 0ZM20.0986 8.35254C20.2011 7.9932 19.991 7.788 19.625 7.91016L6.4043 12.3232C6.03208 12.4475 6.03471 12.6419 6.39648 12.7627L11.9756 14.625L17.5176 10.4639L13.3613 16.0127L15.8516 21.6221C16.0062 21.9703 16.2167 21.9572 16.3213 21.5908L20.0986 8.35254Z" fill="var(--color-bg-button-filled-disabled, black)" fill-opacity="0.2" style="fill: var(--color-bg-button-filled-disabled, black);fill-opacity:0.2;"/>
</g>
<defs>
<clipPath id="clip0_8734_459545">
<rect width="28" height="28" rx="14" fill="white" style="fill:white;fill-opacity:1;"/>
</clipPath>
</defs>
</svg>
