<svg width="111" height="111" viewBox="0 0 111 111" fill="none" xmlns="http://www.w3.org/2000/svg">
<circle cx="48.1068" cy="37.9074" r="25.6721" transform="rotate(-6.87348 48.1068 37.9074)" fill="url(#paint0_linear_8734_459110)"/>
<g opacity="0.6" filter="url(#filter0_f_8734_459110)">
<ellipse cx="55.3219" cy="55.4492" rx="23.3219" ry="23.4492" fill="url(#paint1_linear_8734_459110)"/>
</g>
<mask id="mask0_8734_459110" style="mask-type:alpha" maskUnits="userSpaceOnUse" x="22" y="12" width="52" height="52">
<circle cx="48.1068" cy="37.923" r="25.6721" transform="rotate(-6.87348 48.1068 37.923)" fill="url(#paint2_linear_8734_459110)"/>
</mask>
<g mask="url(#mask0_8734_459110)">
<g filter="url(#filter1_f_8734_459110)">
<path d="M33.2656 59.6411C33.2656 59.6411 39.2275 58.8066 40.5634 57.5078C40.5634 58.3979 41.9356 60.0054 43.7114 61.3535C45.4873 62.7017 47.9492 63.8759 47.9492 63.8759L38.0424 64.6128L33.2656 59.6411Z" fill="#0D8766" style="fill:#0D8766;fill:color(display-p3 0.0499 0.5285 0.4006);fill-opacity:1;"/>
</g>
<g opacity="0.35" filter="url(#filter2_f_8734_459110)">
<path fill-rule="evenodd" clip-rule="evenodd" d="M70.3868 54.0238C70.4292 53.7594 70.4677 53.4935 70.5 53.2258C72.2001 39.1592 59.3015 26.0648 41.6899 23.9791C39.3615 23.7034 37.0671 23.6365 34.8347 23.756C37.3205 12.6036 47.1674 4.3973 59.1719 4.4767C73.3365 4.57042 85.1377 16.164 85.5306 30.3707C85.8266 41.078 79.5573 50.2129 70.3868 54.0238Z" fill="white" style="fill:white;fill-opacity:1;"/>
</g>
<g opacity="0.3" filter="url(#filter3_f_8734_459110)">
<path fill-rule="evenodd" clip-rule="evenodd" d="M31.6247 16.2149C29.1914 29.7642 36.1067 43.5499 48.8289 48.7979C55.5732 51.5799 62.7667 51.4723 69.1452 49.0481C64.2136 61.7889 51.7976 69.8666 39.3923 67.6133C25.416 65.0745 16.7481 50.3844 20.0321 34.8015C21.6717 27.0211 25.981 20.4895 31.6247 16.2149Z" fill="#07785B" style="fill:#07785B;fill:color(display-p3 0.0257 0.4687 0.3565);fill-opacity:1;"/>
</g>
<g opacity="0.5" filter="url(#filter4_f_8734_459110)">
<path d="M16.5547 37.8994C22.5612 47.0406 32.1778 54.1877 43.9372 57.137C55.0338 59.92 66.0323 58.461 75.0386 53.8296C68.3675 63.4068 58.172 69.4908 47.1162 69.2259C31.2126 68.8446 18.745 55.4543 16.5547 37.8994Z" fill="#07785B" style="fill:#07785B;fill:color(display-p3 0.0257 0.4687 0.3565);fill-opacity:1;"/>
</g>
<g opacity="0.4" filter="url(#filter5_f_8734_459110)">
<path d="M82.127 24.3389C76.1189 16.6399 66.7766 10.6442 55.564 8.20812C44.9709 5.90669 34.6245 7.19929 26.2794 11.1685C32.2354 3.02542 41.6524 -2.17776 52.1138 -2.00803C67.1524 -1.76402 79.4163 9.49988 82.127 24.3389Z" fill="#39B716" style="fill:#39B716;fill:color(display-p3 0.2235 0.7179 0.0854);fill-opacity:1;"/>
</g>
</g>
<path d="M59.869 36.0619L57.7697 39.1912C57.4103 39.7269 57.6145 40.457 58.1997 40.7286L61.7152 42.3599" stroke="url(#paint3_linear_8734_459110)" stroke-width="5.25" stroke-linecap="round"/>
<path d="M42.25 42.3613L44.6625 48.651" stroke="url(#paint4_linear_8734_459110)" stroke-width="5.25" stroke-linecap="round"/>
<g filter="url(#filter6_f_8734_459110)">
<path d="M28.5271 44.0058L41.1425 56.99C41.1425 56.99 40.2003 58.5428 33.9833 59.8506C29.7879 60.7331 25.4575 60.5728 23.0849 60.3752C22.161 60.2983 21.6299 59.3382 22.0103 58.4927L28.5271 44.0058Z" fill="url(#paint5_linear_8734_459110)"/>
</g>
<mask id="mask1_8734_459110" style="mask-type:alpha" maskUnits="userSpaceOnUse" x="21" y="44" width="21" height="17">
<path d="M28.5193 44.0215L41.1347 57.0056C41.1347 57.0056 40.1925 58.5584 33.9755 59.8662C29.7801 60.7487 25.4497 60.5884 23.0771 60.3908C22.1532 60.3139 21.6221 59.3538 22.0024 58.5083L28.5193 44.0215Z" fill="url(#paint6_linear_8734_459110)"/>
</mask>
<g mask="url(#mask1_8734_459110)">
<g opacity="0.8" filter="url(#filter7_f_8734_459110)">
<path d="M18.3527 58.1943C18.3527 58.1943 27.7589 60.1784 38.1764 57.8047C38.5377 58.7179 34.4053 63.9143 27.7609 63.9143C18.045 63.9143 18.3527 58.1943 18.3527 58.1943Z" fill="#0C6B53" style="fill:#0C6B53;fill:color(display-p3 0.0477 0.4206 0.3244);fill-opacity:1;"/>
</g>
<g opacity="0.8" filter="url(#filter8_f_8734_459110)">
<path d="M26.0434 49.8992C27.115 51.2406 25.1534 58.446 21.9258 59.7338C18.3736 57.235 18.3353 56.1332 20.6532 52.2132C22.9988 48.2465 24.9719 48.5577 26.0434 49.8992Z" fill="#8EE386" style="fill:#8EE386;fill:color(display-p3 0.5569 0.8902 0.5255);fill-opacity:1;"/>
</g>
</g>
<path d="M74.3807 3.60128C75.9795 7.54336 79.2206 10.5903 83.2539 11.9426C79.3118 13.5414 76.2649 16.7826 74.9125 20.8158C73.3138 16.8737 70.0726 13.8268 66.0393 12.4745C69.9814 10.8757 73.0283 7.63453 74.3807 3.60128Z" fill="#133103" style="fill:#133103;fill:color(display-p3 0.0755 0.1922 0.0119);fill-opacity:1;"/>
<defs>
<filter id="filter0_f_8734_459110" x="0" y="0" width="110.644" height="110.898" filterUnits="userSpaceOnUse" color-interpolation-filters="sRGB">
<feFlood flood-opacity="0" result="BackgroundImageFix"/>
<feBlend mode="normal" in="SourceGraphic" in2="BackgroundImageFix" result="shape"/>
<feGaussianBlur stdDeviation="16" result="effect1_foregroundBlur_8734_459110"/>
</filter>
<filter id="filter1_f_8734_459110" x="29.0656" y="53.3078" width="23.0836" height="15.505" filterUnits="userSpaceOnUse" color-interpolation-filters="sRGB">
<feFlood flood-opacity="0" result="BackgroundImageFix"/>
<feBlend mode="normal" in="SourceGraphic" in2="BackgroundImageFix" result="shape"/>
<feGaussianBlur stdDeviation="2.1" result="effect1_foregroundBlur_8734_459110"/>
</filter>
<filter id="filter2_f_8734_459110" x="24.3348" y="-6.02393" width="71.7059" height="70.5479" filterUnits="userSpaceOnUse" color-interpolation-filters="sRGB">
<feFlood flood-opacity="0" result="BackgroundImageFix"/>
<feBlend mode="normal" in="SourceGraphic" in2="BackgroundImageFix" result="shape"/>
<feGaussianBlur stdDeviation="5.25" result="effect1_foregroundBlur_8734_459110"/>
</filter>
<filter id="filter3_f_8734_459110" x="2.53704" y="-0.585155" width="83.4082" height="85.3749" filterUnits="userSpaceOnUse" color-interpolation-filters="sRGB">
<feFlood flood-opacity="0" result="BackgroundImageFix"/>
<feBlend mode="normal" in="SourceGraphic" in2="BackgroundImageFix" result="shape"/>
<feGaussianBlur stdDeviation="8.4" result="effect1_foregroundBlur_8734_459110"/>
</filter>
<filter id="filter4_f_8734_459110" x="6.05469" y="27.3994" width="79.4839" height="52.335" filterUnits="userSpaceOnUse" color-interpolation-filters="sRGB">
<feFlood flood-opacity="0" result="BackgroundImageFix"/>
<feBlend mode="normal" in="SourceGraphic" in2="BackgroundImageFix" result="shape"/>
<feGaussianBlur stdDeviation="5.25" result="effect1_foregroundBlur_8734_459110"/>
</filter>
<filter id="filter5_f_8734_459110" x="15.7794" y="-12.5122" width="76.8475" height="47.3511" filterUnits="userSpaceOnUse" color-interpolation-filters="sRGB">
<feFlood flood-opacity="0" result="BackgroundImageFix"/>
<feBlend mode="normal" in="SourceGraphic" in2="BackgroundImageFix" result="shape"/>
<feGaussianBlur stdDeviation="5.25" result="effect1_foregroundBlur_8734_459110"/>
</filter>
<filter id="filter6_f_8734_459110" x="17.686" y="39.8059" width="27.6564" height="24.9244" filterUnits="userSpaceOnUse" color-interpolation-filters="sRGB">
<feFlood flood-opacity="0" result="BackgroundImageFix"/>
<feBlend mode="normal" in="SourceGraphic" in2="BackgroundImageFix" result="shape"/>
<feGaussianBlur stdDeviation="2.1" result="effect1_foregroundBlur_8734_459110"/>
</filter>
<filter id="filter7_f_8734_459110" x="14.1516" y="53.6047" width="28.2467" height="14.5094" filterUnits="userSpaceOnUse" color-interpolation-filters="sRGB">
<feFlood flood-opacity="0" result="BackgroundImageFix"/>
<feBlend mode="normal" in="SourceGraphic" in2="BackgroundImageFix" result="shape"/>
<feGaussianBlur stdDeviation="2.1" result="effect1_foregroundBlur_8734_459110"/>
</filter>
<filter id="filter8_f_8734_459110" x="14.8605" y="44.7917" width="15.6774" height="19.1422" filterUnits="userSpaceOnUse" color-interpolation-filters="sRGB">
<feFlood flood-opacity="0" result="BackgroundImageFix"/>
<feBlend mode="normal" in="SourceGraphic" in2="BackgroundImageFix" result="shape"/>
<feGaussianBlur stdDeviation="2.1" result="effect1_foregroundBlur_8734_459110"/>
</filter>
<linearGradient id="paint0_linear_8734_459110" x1="11.9516" y1="64.5484" x2="86.1879" y2="15.8151" gradientUnits="userSpaceOnUse">
<stop stop-color="#14CCE1" style="stop-color:#14CCE1;stop-color:color(display-p3 0.0795 0.8018 0.8816);stop-opacity:1;"/>
<stop offset="1" stop-color="#99E222" style="stop-color:#99E222;stop-color:color(display-p3 0.5991 0.8874 0.1352);stop-opacity:1;"/>
</linearGradient>
<linearGradient id="paint1_linear_8734_459110" x1="32" y1="55.4492" x2="83.3029" y2="54.7914" gradientUnits="userSpaceOnUse">
<stop stop-color="#14CCE1" style="stop-color:#14CCE1;stop-color:color(display-p3 0.0795 0.8018 0.8816);stop-opacity:1;"/>
<stop offset="1" stop-color="#99E222" style="stop-color:#99E222;stop-color:color(display-p3 0.5991 0.8874 0.1352);stop-opacity:1;"/>
</linearGradient>
<linearGradient id="paint2_linear_8734_459110" x1="11.9516" y1="64.5641" x2="86.1879" y2="15.8307" gradientUnits="userSpaceOnUse">
<stop stop-color="#14CCE1" style="stop-color:#14CCE1;stop-color:color(display-p3 0.0795 0.8018 0.8816);stop-opacity:1;"/>
<stop offset="1" stop-color="#99E222" style="stop-color:#99E222;stop-color:color(display-p3 0.5991 0.8874 0.1352);stop-opacity:1;"/>
</linearGradient>
<linearGradient id="paint3_linear_8734_459110" x1="59.0637" y1="36.1143" x2="61.7152" y2="45.9075" gradientUnits="userSpaceOnUse">
<stop stop-color="#133103" style="stop-color:#133103;stop-color:color(display-p3 0.0755 0.1922 0.0119);stop-opacity:1;"/>
<stop offset="1" stop-color="#2C4F18" style="stop-color:#2C4F18;stop-color:color(display-p3 0.1707 0.3092 0.0951);stop-opacity:1;"/>
</linearGradient>
<linearGradient id="paint4_linear_8734_459110" x1="43.4563" y1="42.3613" x2="46.7552" y2="51.3104" gradientUnits="userSpaceOnUse">
<stop stop-color="#133103" style="stop-color:#133103;stop-color:color(display-p3 0.0755 0.1922 0.0119);stop-opacity:1;"/>
<stop offset="1" stop-color="#2C4F18" style="stop-color:#2C4F18;stop-color:color(display-p3 0.1707 0.3092 0.0951);stop-opacity:1;"/>
</linearGradient>
<linearGradient id="paint5_linear_8734_459110" x1="31.6744" y1="51.1432" x2="21.2516" y2="59.9871" gradientUnits="userSpaceOnUse">
<stop stop-color="#2AB48C" style="stop-color:#2AB48C;stop-color:color(display-p3 0.1647 0.7059 0.5490);stop-opacity:1;"/>
<stop offset="1" stop-color="#32D0C0" style="stop-color:#32D0C0;stop-color:color(display-p3 0.1944 0.8151 0.7531);stop-opacity:1;"/>
</linearGradient>
<linearGradient id="paint6_linear_8734_459110" x1="31.6665" y1="51.1588" x2="21.2438" y2="60.0027" gradientUnits="userSpaceOnUse">
<stop stop-color="#2AB48C" style="stop-color:#2AB48C;stop-color:color(display-p3 0.1647 0.7059 0.5490);stop-opacity:1;"/>
<stop offset="1" stop-color="#32D0C0" style="stop-color:#32D0C0;stop-color:color(display-p3 0.1944 0.8151 0.7531);stop-opacity:1;"/>
</linearGradient>
</defs>
</svg>
