<svg width="24" height="24" viewBox="0 0 24 24" fill="none" xmlns="http://www.w3.org/2000/svg">
<g clip-path="url(#clip0_8812_1419)">
<path d="M2 7V20L20.2676 19.9999C20.6134 19.4022 21.2597 19 22 19C23.1046 19 24 19.8954 24 21C24 22.1046 23.1046 23 22 23C21.2602 23 20.6142 22.5983 20.2682 22.0011L0 22V7H2ZM2 1C2.74025 1 3.38657 1.40217 3.73239 1.99993L24 2V17H22V4L3.73181 4.00108C3.38585 4.59828 2.73984 5 2 5C0.89543 5 0 4.10457 0 3C0 1.89543 0.89543 1 2 1ZM11 8V10H7V14H11V16H5V8H11ZM13 16V8H19V10H15V14H19V16H13Z" fill="#99A2B2" style="fill:#99A2B2;fill:color(display-p3 0.6003 0.6361 0.6980);fill-opacity:1;"/>
</g>
<defs>
<clipPath id="clip0_8812_1419">
<rect width="24" height="24" fill="white" style="fill:white;fill-opacity:1;"/>
</clipPath>
</defs>
</svg>
