<svg width="16" height="16" viewBox="0 0 16 16" fill="none" xmlns="http://www.w3.org/2000/svg">
<g clip-path="url(#clip0_8711_449683)">
<path d="M0 3.33333C0 2.59695 0.596954 2 1.33333 2H8.66667C9.40305 2 10 2.59695 10 3.33333V4.66667H8.66667V3.33333H1.33333V8H5.33333V9.33333H1.33333V12H5.33333V13.3333H3.60948L2.33333 14.6095L1.39052 13.6667L1.72386 13.3333H1.33333C0.596954 13.3333 0 12.7364 0 12V3.33333ZM7.54865 5.33333H14.4514L16 9.20494V14.3333H14.6667V13.3333H7.33333V14.3333H6V9.20494L7.54865 5.33333ZM7.33333 12H14.6667V9.46172L14.6153 9.33333H7.38469L7.33333 9.46172V12ZM7.91802 8H14.082L13.5486 6.66667H8.45135L7.91802 8ZM2 10H3.33594V11.3359H2V10ZM8 10H9.33594V11.3359H8V10ZM12.6667 10H14.0026V11.3359H12.6667V10Z" fill="black" fill-opacity="0.9" style="fill:black;fill-opacity:0.9;"/>
</g>
<defs>
<clipPath id="clip0_8711_449683">
<rect width="16" height="16" fill="white" style="fill:white;fill-opacity:1;"/>
</clipPath>
</defs>
</svg>
