<svg width="16" height="16" viewBox="0 0 16 16" fill="none" xmlns="http://www.w3.org/2000/svg">
<path d="M7.99967 2.66683C5.90289 2.66683 4.11323 3.47439 3.66162 5.1428C3.51878 5.6705 3.42094 6.19681 3.37119 6.66683L12.6282 6.66683C12.5785 6.19759 12.4809 5.67223 12.3384 5.1454C11.8868 3.47504 10.0978 2.66683 7.99967 2.66683ZM13.333 8.00016L2.66634 8.00016C2.66634 10.9457 5.05416 13.3335 7.99967 13.3335C10.9452 13.3335 13.333 10.9457 13.333 8.00016ZM2.03151 6.66683C2.08476 6.07621 2.20318 5.42775 2.3746 4.79443C3.06938 2.22767 5.70888 1.3335 7.99967 1.3335C10.2926 1.3335 12.931 2.22889 13.6255 4.79736C13.7965 5.42973 13.9147 6.0771 13.9678 6.66683H14.6663V8.00016C14.6663 11.6821 11.6816 14.6668 7.99967 14.6668C4.31778 14.6668 1.33301 11.6821 1.33301 8.00016V6.66683H2.03151ZM7.33171 3.33219H8.66764V4.66813H7.33171V3.33219ZM5.33171 4.66553H6.66764V6.00146H5.33171V4.66553ZM9.33171 4.66553H10.6676V6.00146H9.33171V4.66553Z" fill="black" fill-opacity="0.9" style="fill:black;fill-opacity:0.9;"/>
</svg>
