<svg width="16" height="16" viewBox="0 0 16 16" fill="none" xmlns="http://www.w3.org/2000/svg">
<path d="M8 1.33333C7.53976 1.33333 7.16667 1.70643 7.16667 2.16667C7.16667 2.6269 7.53976 3 8 3C8.46024 3 8.83333 2.6269 8.83333 2.16667C8.83333 1.70643 8.46024 1.33333 8 1.33333ZM5.83333 2.16667C5.83333 0.97005 6.80338 0 8 0C9.19662 0 10.1667 0.97005 10.1667 2.16667C10.1667 3.36328 9.19662 4.33333 8 4.33333C6.80338 4.33333 5.83333 3.36328 5.83333 2.16667ZM1.5 6.41667C1.5 5.45017 2.2835 4.66667 3.25 4.66667H12.75C13.7165 4.66667 14.5 5.45017 14.5 6.41667C14.5 7.38317 13.7165 8.16667 12.75 8.16667H10.9977L12.2137 13.6385C12.445 14.6793 11.653 15.6667 10.5867 15.6667H9.15901L8 11.4653L6.84099 15.6667H5.41328C4.34704 15.6667 3.555 14.6793 3.7863 13.6384L5.00226 8.16667H3.25C2.2835 8.16667 1.5 7.38317 1.5 6.41667ZM3.25 6C3.01988 6 2.83333 6.18655 2.83333 6.41667C2.83333 6.64679 3.01988 6.83333 3.25 6.83333H6.66441L5.08789 13.9277C5.04163 14.1359 5.20003 14.3333 5.41328 14.3333H5.82567L7.15901 9.5H8.84099L10.1743 14.3333H10.5867C10.8 14.3333 10.9584 14.1359 10.9121 13.9277L9.33559 6.83333H12.75C12.9801 6.83333 13.1667 6.64679 13.1667 6.41667C13.1667 6.18655 12.9801 6 12.75 6H3.25Z" fill="black" fill-opacity="0.9" style="fill:black;fill-opacity:0.9;"/>
</svg>
