<svg width="24" height="24" viewBox="0 0 24 24" fill="none" xmlns="http://www.w3.org/2000/svg">
<rect width="24" height="24" rx="4" fill="#BBD3FB" fill-opacity="0.5" style="fill:#BBD3FB;fill:color(display-p3 0.7333 0.8275 0.9843);fill-opacity:0.5;"/>
<mask id="path-2-inside-1_8734_461267" fill="white">
<path d="M12.001 5.3335C16.0511 5.3335 19.335 8.31859 19.335 12.0005C19.3348 15.6822 16.0509 18.6665 12.001 18.6665C10.74 18.6665 9.55391 18.3764 8.51758 17.8667L5.26758 18.6646L6.01758 15.853C5.16832 14.765 4.66804 13.4361 4.66797 12.0005C4.66797 8.31869 7.95104 5.33366 12.001 5.3335Z"/>
</mask>
<path d="M12.001 5.3335V4.00016H12.0009L12.001 5.3335ZM19.335 12.0005L20.6683 12.0006V12.0005H19.335ZM12.001 18.6665L12.0009 19.9998H12.001V18.6665ZM8.51758 17.8667L9.10599 16.6702L8.67074 16.4562L8.19969 16.5718L8.51758 17.8667ZM5.26758 18.6646L3.97929 18.3209L3.39901 20.4962L5.58546 19.9594L5.26758 18.6646ZM6.01758 15.853L7.30586 16.1967L7.47687 15.5556L7.06863 15.0326L6.01758 15.853ZM4.66797 12.0005H3.33464V12.0006L4.66797 12.0005ZM12.001 5.3335V6.66683C15.4372 6.66683 18.0016 9.17178 18.0016 12.0005H19.335H20.6683C20.6683 7.4654 16.6649 4.00016 12.001 4.00016V5.3335ZM19.335 12.0005L18.0016 12.0004C18.0015 14.8289 15.4373 17.3332 12.001 17.3332V18.6665V19.9998C16.6646 19.9998 20.6681 16.5356 20.6683 12.0006L19.335 12.0005ZM12.001 18.6665L12.001 17.3332C10.9455 17.3331 9.9605 17.0905 9.10599 16.6702L8.51758 17.8667L7.92917 19.0632C9.14733 19.6623 10.5346 19.9998 12.0009 19.9998L12.001 18.6665ZM8.51758 17.8667L8.19969 16.5718L4.94969 17.3697L5.26758 18.6646L5.58546 19.9594L8.83546 19.1616L8.51758 17.8667ZM5.26758 18.6646L6.55586 19.0082L7.30586 16.1967L6.01758 15.853L4.72929 15.5094L3.97929 18.3209L5.26758 18.6646ZM6.01758 15.853L7.06863 15.0326C6.38875 14.1616 6.00136 13.1175 6.0013 12.0004L4.66797 12.0005L3.33464 12.0006C3.33473 13.7548 3.94789 15.3684 4.96652 16.6734L6.01758 15.853ZM4.66797 12.0005H6.0013C6.0013 9.1717 8.56511 6.66697 12.001 6.66683L12.001 5.3335L12.0009 4.00016C7.33697 4.00035 3.33464 7.46567 3.33464 12.0005H4.66797Z" fill="#1C66E5" style="fill:#1C66E5;fill:color(display-p3 0.1098 0.4000 0.8980);fill-opacity:1;" mask="url(#path-2-inside-1_8734_461267)"/>
<path d="M8.6665 10.666H15.3332" stroke="#1C66E5" style="stroke:#1C66E5;stroke:color(display-p3 0.1098 0.4000 0.8980);stroke-opacity:1;" stroke-width="1.33333"/>
<path d="M8.6665 13.9995H12.6665" stroke="#1C66E5" style="stroke:#1C66E5;stroke:color(display-p3 0.1098 0.4000 0.8980);stroke-opacity:1;" stroke-width="1.33333"/>
</svg>
