<svg width="16" height="16" viewBox="0 0 16 16" fill="none" xmlns="http://www.w3.org/2000/svg">
<path d="M14.3176 13.0875C14.6847 13.0875 14.9824 13.3855 14.9826 13.7526C14.9826 14.1198 14.6848 14.4176 14.3176 14.4176H8.20427C7.83719 14.4174 7.53923 14.1197 7.53923 13.7526C7.53946 13.3856 7.83733 13.0878 8.20427 13.0875H14.3176ZM9.9367 1.48109C10.3637 1.13245 10.9802 1.13275 11.4074 1.48109L11.4963 1.56117L13.5949 3.65883C14.0497 4.11367 14.0495 4.8513 13.5949 5.30629L5.58513 13.3161C5.42154 13.4794 5.21242 13.5909 4.98552 13.6354L2.40642 14.1413C1.59953 14.2993 0.886513 13.5943 1.0363 12.7858L1.5197 10.1793L1.56462 10.0094C1.62201 9.84418 1.71633 9.69284 1.84099 9.56801L9.8488 1.56117L9.9367 1.48109ZM2.81755 10.4713L2.38787 12.7897L4.68084 12.3385L10.3986 6.61977L8.53435 4.75453L2.81755 10.4713ZM9.47478 3.8141L11.339 5.67934L12.5373 4.48207L10.672 2.61781L9.47478 3.8141Z" fill="var(---------text-color-secondary, #676A70)" style="fill:#676A70;fill:color(display-p3 0.4039 0.4157 0.4392);fill-opacity:1;"/>
</svg>
