<svg width="12" height="12" viewBox="0 0 12 12" fill="none" xmlns="http://www.w3.org/2000/svg">
<path d="M4.81339 1.54905C5.24602 1.30296 5.46233 1.17991 5.69195 1.13172C5.89514 1.08907 6.10498 1.08907 6.30817 1.13172C6.53779 1.17991 6.7541 1.30296 7.18673 1.54905L9.29246 2.74689C9.73432 2.99824 9.95525 3.12391 10.116 3.30085C10.2582 3.45739 10.3657 3.64224 10.4315 3.84326C10.5058 4.07047 10.5058 4.32465 10.5058 4.83299V7.16731C10.5058 7.67566 10.5058 7.92983 10.4315 8.15704C10.3657 8.35807 10.2582 8.54292 10.116 8.69946C9.95525 8.87639 9.73432 9.00207 9.29246 9.25342L7.18673 10.4513C6.7541 10.6973 6.53779 10.8204 6.30817 10.8686C6.10498 10.9112 5.89514 10.9112 5.69195 10.8686C5.46233 10.8204 5.24602 10.6973 4.81339 10.4513L2.70766 9.25341C2.2658 9.00207 2.04487 8.87639 1.88412 8.69946C1.74189 8.54292 1.63438 8.35807 1.56863 8.15704C1.49432 7.92983 1.49432 7.67566 1.49432 7.16731V4.83299C1.49432 4.32465 1.49432 4.07047 1.56863 3.84326C1.63438 3.64224 1.74189 3.45739 1.88412 3.30085C2.04487 3.12391 2.2658 2.99824 2.70766 2.74689L4.81339 1.54905Z" stroke="var(---------text-color-secondary, #676A70)" style="stroke:#676A70;stroke:color(display-p3 0.4039 0.4157 0.4392);stroke-opacity:1;" stroke-width="0.9975"/>
<circle cx="6.00073" cy="5.99976" r="1.63257" stroke="var(---------text-color-secondary, #676A70)" style="stroke:#676A70;stroke:color(display-p3 0.4039 0.4157 0.4392);stroke-opacity:1;" stroke-width="0.9975"/>
</svg>
