<svg width="16" height="16" viewBox="0 0 16 16" fill="none" xmlns="http://www.w3.org/2000/svg">
<path d="M10.1926 0.986384C10.2345 1.06575 10.2844 1.16562 10.348 1.29288C10.8629 2.32316 11.1554 2.91589 11.5675 3.40437C11.8502 3.73952 12.1732 4.0355 12.5317 4.28795C13.0543 4.65589 13.6702 4.8956 14.7415 5.3187C14.8734 5.37081 14.9768 5.41219 15.0594 5.44695C14.9679 5.51266 14.8537 5.59271 14.7081 5.69417C13.526 6.51786 12.847 6.98779 12.2412 7.55632C11.8256 7.9464 11.4387 8.36857 11.0864 8.81663C10.5728 9.46967 10.1639 10.1871 9.44635 11.4365C9.35797 11.5904 9.28818 11.7111 9.2307 11.808C9.18887 11.7287 9.13864 11.6294 9.07522 11.5025C8.56035 10.4722 8.26786 9.87944 7.85577 9.39096C7.57302 9.05581 7.25001 8.75983 6.8915 8.50738C6.36895 8.13944 5.75298 7.89974 4.68173 7.47664C4.54942 7.42438 4.44557 7.38338 4.36286 7.34855C4.45452 7.28273 4.5691 7.2029 4.71511 7.10116C5.89718 6.27747 6.57623 5.80754 7.18202 5.23901C7.59765 4.84893 7.9845 4.42676 8.33686 3.9787C8.85042 3.32566 9.25936 2.60823 9.97687 1.35886C10.0655 1.20454 10.135 1.08343 10.1926 0.986384Z" stroke="var(--color-text-solid, black)" style="stroke: var(--color-text-solid, black);stroke-opacity:1;" stroke-width="1.5"/>
<path d="M3.61831 10.4117C3.80063 10.7709 3.94494 11.0315 4.1338 11.2554C4.29799 11.45 4.48561 11.622 4.69381 11.7686C4.93315 11.9371 5.20496 12.0585 5.57827 12.2087C5.16584 12.4986 4.86336 12.7221 4.5859 12.9825C4.34454 13.209 4.11984 13.4543 3.91522 13.7145C3.68 14.0136 3.48368 14.3344 3.23086 14.7705C3.0487 14.4117 2.90402 14.1515 2.71528 13.9278C2.55109 13.7332 2.36346 13.5612 2.15527 13.4146C1.91578 13.246 1.64352 13.125 1.26985 12.9746C1.68267 12.6845 1.98554 12.4612 2.26317 12.2007C2.50454 11.9741 2.72924 11.7289 2.93386 11.4687C3.16923 11.1694 3.36526 10.8483 3.61831 10.4117Z" stroke="var(--color-text-solid, black)" style="stroke: var(--color-text-solid, black);stroke-opacity:1;" stroke-width="1.5"/>
</svg>
