<svg width="16" height="16" viewBox="0 0 16 16" fill="none" xmlns="http://www.w3.org/2000/svg">
<path d="M2.66699 1.3335H13.3337V3.3335C13.3337 5.34151 12.2239 7.09034 10.5843 8.00016C12.2239 8.90998 13.3337 10.6588 13.3337 12.6668V14.6668H2.66699V12.6668C2.66699 10.6588 3.77671 8.90998 5.41632 8.00016C3.77671 7.09034 2.66699 5.34151 2.66699 3.3335V1.3335ZM8.00033 8.66683C5.79119 8.66683 4.00033 10.4577 4.00033 12.6668V13.3335H12.0003V12.6668C12.0003 10.4577 10.2095 8.66683 8.00033 8.66683ZM4.00033 2.66683V3.3335C4.00033 5.54263 5.79119 7.3335 8.00033 7.3335C10.2095 7.3335 12.0003 5.54263 12.0003 3.3335V2.66683H4.00033Z" fill="var(--color-text-disabled, black)" fill-opacity="0.3" style="fill: var(--color-text-disabled, black);fill-opacity:0.3;"/>
</svg>
