<svg width="16" height="16" viewBox="0 0 16 16" fill="none" xmlns="http://www.w3.org/2000/svg">
<g clip-path="url(#clip0_8711_450499)">
<path d="M3.46522 16.0005H7.20145L7.49774 14.6671H9.16892L9.46522 16.0005H13.2014L13.6227 14.1048C16.0565 12.0643 16.7497 8.51217 15.1068 5.66667C14.9563 5.40592 14.7914 5.15966 14.6136 4.92815C14.6485 4.73479 14.6667 4.53596 14.6667 4.33333C14.6667 2.49238 13.1743 1 11.3333 1C10.2392 1 9.26891 1.52741 8.66181 2.33961C7.7657 2.39609 6.86144 2.60805 5.99208 2.97575L5.37808 3.23545L5.89747 4.46346L6.51148 4.20376C7.01741 3.98978 7.53456 3.8395 8.05072 3.75146C8.01738 3.94056 8 4.13503 8 4.33333C8 6.17428 9.49238 7.66667 11.3333 7.66667C12.4082 7.66667 13.3633 7.15822 13.9727 6.36926C15.2933 8.69736 14.6719 11.606 12.6133 13.2065L12.4237 13.3538L12.1319 14.6671H10.5348L10.2385 13.3338H6.42818L6.13188 14.6671H4.53478L4.08894 12.6609L3.75465 12.5326C3.04501 12.2603 2.04594 11.6854 1.33333 11.0465V8.00034L2.04413 8.00027L3.40846 5.7266L2.96305 4.61295C3.5006 4.68275 4.12013 4.94712 4.69754 5.58219L5.14601 6.07545L6.13255 5.1785L5.68407 4.68523C4.42189 3.297 2.90443 3.10553 1.849 3.35097L1.09263 3.52686L1.92487 5.60767L1.2892 6.66701L0 6.66713V11.6109L0.196468 11.8064C0.962896 12.5689 2.06002 13.2463 2.94013 13.6376L3.46522 16.0005ZM3.66667 8.66667H5.0026V7.33073H3.66667V8.66667ZM11.3333 6.33333C10.2288 6.33333 9.33333 5.4379 9.33333 4.33333C9.33333 3.96544 9.43205 3.62264 9.604 3.32777C9.95168 2.73156 10.5964 2.33333 11.3333 2.33333C12.4379 2.33333 13.3333 3.22876 13.3333 4.33333C13.3333 4.53259 13.3044 4.72391 13.2509 4.90393C13.0053 5.73113 12.2388 6.33333 11.3333 6.33333Z" fill="black" fill-opacity="0.9" style="fill:black;fill-opacity:0.9;"/>
</g>
<defs>
<clipPath id="clip0_8711_450499">
<rect width="16" height="16" fill="white" style="fill:white;fill-opacity:1;"/>
</clipPath>
</defs>
</svg>
