<svg width="16" height="16" viewBox="0 0 16 16" fill="none" xmlns="http://www.w3.org/2000/svg">
<path d="M2.66675 1.33398H13.3334V3.33398C13.3334 5.342 12.2237 7.09083 10.5841 8.00065C12.2237 8.91047 13.3334 10.6593 13.3334 12.6673V14.6673H2.66675V12.6673C2.66675 10.6593 3.77647 8.91047 5.41608 8.00065C3.77647 7.09083 2.66675 5.342 2.66675 3.33398V1.33398ZM8.00008 8.66732C5.79094 8.66732 4.00008 10.4582 4.00008 12.6673V13.334H12.0001V12.6673C12.0001 10.4582 10.2092 8.66732 8.00008 8.66732ZM4.00008 2.66732V3.33398C4.00008 5.54312 5.79094 7.33398 8.00008 7.33398C10.2092 7.33398 12.0001 5.54312 12.0001 3.33398V2.66732H4.00008Z" fill="var(--color-text-disabled, black)" fill-opacity="0.3" style="fill: var(--color-text-disabled, black);fill-opacity:0.3;"/>
</svg>
