<svg width="16" height="16" viewBox="0 0 16 16" fill="none" xmlns="http://www.w3.org/2000/svg">
<path d="M8.00111 2.54527C9.63202 1.11236 12.1178 1.17437 13.6747 2.73129C15.2962 4.35279 15.2962 6.98177 13.6747 8.60327L10.1913 12.0866L10.1908 12.0861L8.00025 14.2767L3.14736 9.42383L2.32639 8.60226C2.32633 8.6022 2.32645 8.60232 2.32639 8.60226C0.705062 6.98075 0.704948 4.35173 2.32639 2.73029C3.88368 1.173 6.37022 1.11133 8.00111 2.54527ZM10.1907 10.2016L12.7319 7.66046C13.8327 6.55966 13.8327 4.7749 12.7319 3.6741C11.6311 2.5733 9.84632 2.5733 8.74552 3.6741L8.0004 4.41793L7.25556 3.6731C6.15476 2.57229 4.37 2.57229 3.2692 3.6731C2.1684 4.7739 2.1684 6.55865 3.2692 7.65945L4.09017 8.48102L8.00025 12.3911L10.1902 10.2011L10.1907 10.2016Z" fill="black" fill-opacity="0.9" style="fill:black;fill-opacity:0.9;"/>
</svg>
