<svg width="16" height="16" viewBox="0 0 16 16" fill="none" xmlns="http://www.w3.org/2000/svg">
<path d="M8.00016 2.66683C5.90338 2.66683 4.11372 3.47439 3.66211 5.1428C3.51927 5.6705 3.42143 6.19681 3.37168 6.66683L12.6286 6.66683C12.579 6.19759 12.4814 5.67223 12.3389 5.1454C11.8872 3.47504 10.0983 2.66683 8.00016 2.66683ZM13.3335 8.00016L2.66683 8.00016C2.66683 10.9457 5.05464 13.3335 8.00016 13.3335C10.9457 13.3335 13.3335 10.9457 13.3335 8.00016ZM2.032 6.66683C2.08524 6.07621 2.20366 5.42775 2.37509 4.79443C3.06987 2.22767 5.70936 1.3335 8.00016 1.3335C10.2931 1.3335 12.9315 2.22889 13.626 4.79736C13.797 5.42973 13.9152 6.0771 13.9683 6.66683H14.6668V8.00016C14.6668 11.6821 11.6821 14.6668 8.00016 14.6668C4.31826 14.6668 1.3335 11.6821 1.3335 8.00016V6.66683H2.032ZM7.33219 3.33219H8.66813V4.66813H7.33219V3.33219ZM5.33219 4.66553H6.66813V6.00146H5.33219V4.66553ZM9.33219 4.66553H10.6681V6.00146H9.33219V4.66553Z" fill="black" fill-opacity="0.9" style="fill:black;fill-opacity:0.9;"/>
</svg>
