<svg width="28" height="22" viewBox="0 0 28 22" fill="none" xmlns="http://www.w3.org/2000/svg">
<path fill-rule="evenodd" clip-rule="evenodd" d="M22.76 16.8833C22.3541 17.2843 21.63 17.7396 20.4412 17.7799C19.8917 17.7985 19.2495 17.8006 18.9559 17.8006H12.5688C14.8925 15.5477 16.9198 13.5829 17.1498 13.3599C17.3603 13.1558 17.8342 12.7033 18.2429 12.336C19.1402 11.5297 19.9478 11.3674 20.5191 11.3728C21.4142 11.3809 22.2281 11.7457 22.8097 12.3348C24.0546 13.6046 24.025 15.6336 22.76 16.8833ZM24.2883 10.889C23.3338 9.91756 22.0036 9.30558 20.5249 9.30558C19.2466 9.30526 18.146 9.74521 17.1849 10.5261C16.7662 10.8666 16.327 11.2742 15.7739 11.81C15.5906 11.988 11.968 15.4961 9.58934 17.7995C9.25821 17.7983 8.7824 17.7936 8.36052 17.7794C7.17171 17.7392 6.44765 17.2838 6.04176 16.8829C4.77675 15.6332 4.74716 13.6042 5.99204 12.3343C6.57364 11.7453 7.3879 11.3805 8.28273 11.3723C8.84357 11.3701 9.60485 11.5327 10.4647 12.2444C10.8753 12.584 11.787 13.3837 12.187 13.7437C12.2073 13.762 12.2318 13.7636 12.2557 13.7441L13.6669 12.3699C13.6912 12.3463 13.6898 12.3144 13.6657 12.2927C12.9871 11.6804 12.025 10.8237 11.4459 10.3933C10.8374 9.93892 10.1814 9.61566 9.47059 9.44522C9.47782 9.44681 9.48538 9.44776 9.49302 9.44927C9.97217 7.16589 11.9948 5.4699 14.3999 5.4699C16.4032 5.4699 18.1605 6.67561 18.9529 8.38447C18.9652 8.41154 18.9863 8.42035 19.008 8.41431C19.6039 8.25086 20.3182 8.15583 21.0082 8.2068C21.0753 8.2118 21.1015 8.17377 21.0798 8.11273C20.1058 5.36773 17.484 3.40039 14.3999 3.40039C10.8623 3.40039 7.93076 5.9967 7.39983 9.37853C7.40142 9.37853 7.40301 9.37885 7.4046 9.37853C6.27783 9.56692 5.27459 10.1125 4.51172 10.889C2.46713 12.9745 2.49863 16.3071 4.59333 18.3602C5.43431 19.1845 6.4533 19.6329 7.54006 19.7846C7.95725 19.844 8.53066 19.8616 9.04266 19.8648C9.52197 19.8679 18.6674 19.8669 19.0503 19.8669C19.8209 19.8669 20.3223 19.8663 20.861 19.827C22.0962 19.7368 23.2633 19.2848 24.2066 18.3602C26.3013 16.3071 26.3329 12.9745 24.2883 10.889Z" fill="white" fill-opacity="0.9" style="fill:white;fill-opacity:0.9;"/>
</svg>
