<svg width="16" height="16" viewBox="0 0 16 16" fill="none" xmlns="http://www.w3.org/2000/svg">
<path fill-rule="evenodd" clip-rule="evenodd" d="M6.97974 2.02797C8.06816 1.89683 9.12653 2.03912 10.0872 2.39808C9.73141 2.61534 9.3547 2.80276 8.95728 2.94984L8.67505 3.05336C8.25731 2.98573 7.82629 2.96433 7.38794 2.99476L7.09986 3.02113C4.01482 3.39301 1.81518 6.19504 2.18677 9.27992C2.30284 10.2428 2.65493 11.119 3.17798 11.8571L3.30591 12.0368L3.25806 12.2536L2.87623 13.9918L5.2854 13.7321L5.41724 13.7184L5.53931 13.7702C6.42436 14.1541 7.41901 14.3169 8.44654 14.193L8.73267 14.151C11.6661 13.6456 13.7189 10.922 13.3586 7.93324C13.3497 7.85909 13.3381 7.78564 13.3264 7.71254L13.4329 7.4264C13.5798 7.02919 13.7656 6.65114 13.9827 6.29554C14.1608 6.77542 14.2878 7.28355 14.3518 7.8141C14.7895 11.447 12.1996 14.7478 8.56665 15.1862C7.40677 15.326 6.28093 15.1522 5.27076 14.7389L2.75415 15.0123C2.18782 15.0733 1.72893 14.5602 1.85083 14.0045L2.23658 12.2457C1.69045 11.416 1.32042 10.4517 1.19361 9.40004C0.755862 5.76678 3.34665 2.46609 6.97974 2.02797Z" fill="var(------Gray--Dark-7, #676A70)" style="fill:#676A70;fill:color(display-p3 0.4039 0.4157 0.4392);fill-opacity:1;"/>
<path fill-rule="evenodd" clip-rule="evenodd" d="M5.71683 7.2989C6.05825 7.25037 6.37402 7.4872 6.42299 7.82855L6.63512 9.31088C6.68391 9.6526 6.44633 9.96934 6.10462 10.0181C5.76292 10.0669 5.44616 9.82933 5.39738 9.48763L5.18622 8.00517C5.13766 7.6636 5.37525 7.34767 5.71683 7.2989ZM9.58352 6.74427C9.92509 6.6955 10.2417 6.93231 10.2906 7.2738L10.5018 8.75625C10.5506 9.09782 10.3138 9.41439 9.97228 9.46338C9.63057 9.51216 9.31382 9.27459 9.26503 8.93288L9.0529 7.45054C9.00436 7.10901 9.242 6.79309 9.58352 6.74427Z" fill="var(------Gray--Dark-7, #676A70)" style="fill:#676A70;fill:color(display-p3 0.4039 0.4157 0.4392);fill-opacity:1;"/>
<path d="M12.8301 0.449219C13.3581 1.87619 14.4832 3.00127 15.9102 3.5293C14.4832 4.05732 13.3581 5.1824 12.8301 6.60938C12.3021 5.1824 11.177 4.05732 9.75 3.5293C11.177 3.00127 12.3021 1.87619 12.8301 0.449219Z" fill="var(------Gray--Dark-7, #676A70)" style="fill:#676A70;fill:color(display-p3 0.4039 0.4157 0.4392);fill-opacity:1;"/>
</svg>
