<svg width="16" height="16" viewBox="0 0 16 16" fill="none" xmlns="http://www.w3.org/2000/svg">
<path d="M9.01953 1.81738L8 2.39453L2.9375 5.21289V10.7871L8 13.6055L13.0615 10.7871V6.5625L14.0615 6.25098V11.375L8 14.75L1.9375 11.375V4.625L8 1.25L9.01953 1.81738ZM8 5C9.65671 5.00017 11 6.34325 11 8C11 9.65675 9.65671 10.9998 8 11C6.34315 11 5 9.65685 5 8C5 6.34315 6.34315 5 8 5ZM8 6C6.89543 6 6 6.89543 6 8C6 9.10457 6.89543 10 8 10C9.10442 9.99983 10 9.10446 10 8C10 6.89554 9.10442 6.00017 8 6Z" fill="var(-----------Theme-Light-6, #1C66E5)" style="fill:#1C66E5;fill:color(display-p3 0.1098 0.4000 0.8980);fill-opacity:1;"/>
<path d="M11.9555 1.08332C11.9735 0.992326 12.1036 0.992326 12.1216 1.08332C12.3342 2.1609 13.1767 3.00333 14.2542 3.216C14.3452 3.23396 14.3452 3.36411 14.2542 3.38206C13.1767 3.59473 12.3342 4.43716 12.1216 5.51474C12.1036 5.60574 11.9735 5.60574 11.9555 5.51474C11.7428 4.43716 10.9004 3.59473 9.82283 3.38207C9.73183 3.36411 9.73183 3.23396 9.82283 3.216C10.9004 3.00333 11.7428 2.1609 11.9555 1.08332Z" fill="var(-----------Theme-Light-6, #1C66E5)" style="fill:#1C66E5;fill:color(display-p3 0.1098 0.4000 0.8980);fill-opacity:1;"/>
</svg>
