<svg width="16" height="16" viewBox="0 0 16 16" fill="none" xmlns="http://www.w3.org/2000/svg">
<path d="M2.51604 6.37406C2.73216 3.53429 5.10482 1.29736 7.99995 1.29736C10.8949 1.29736 13.2674 3.53398 13.4838 6.37347C13.4944 6.41394 13.5 6.4564 13.5 6.50018V10.5002C13.5 10.5508 13.4925 10.5997 13.4785 10.6457C13.2561 12.9232 11.3359 14.7029 9 14.7029H8V13.7029H9C10.6587 13.7029 12.048 12.5491 12.4088 11.0002H10.5C10.2239 11.0002 10 10.7763 10 10.5002V6.50018C10 6.22404 10.2239 6.00018 10.5 6.00018H12.4295C12.0532 3.89516 10.2132 2.29736 7.99995 2.29736C5.78672 2.29736 3.94667 3.89516 3.57038 6.00018H5.5C5.77614 6.00018 6 6.22404 6 6.50018V10.5002C6 10.7763 5.77614 11.0002 5.5 11.0002H3C2.72386 11.0002 2.5 10.7763 2.5 10.5002V6.50018C2.5 6.45661 2.50557 6.41435 2.51604 6.37406ZM12.4999 7.00018H11V10.0002H12.5L12.4999 7.00018ZM3.5 7.00018V10.0002H5V7.00018H3.5Z" fill="var(------Gray--Dark-7, #676A70)" style="fill:#676A70;fill:color(display-p3 0.4039 0.4157 0.4392);fill-opacity:1;"/>
</svg>
