<svg width="16" height="16" viewBox="0 0 16 16" fill="none" xmlns="http://www.w3.org/2000/svg">
<path fill-rule="evenodd" clip-rule="evenodd" d="M3.75678 2.37793C4.18009 2.06347 4.77408 2.13212 5.11518 2.5332L6.94526 4.68555C7.26268 5.05886 7.26247 5.60698 6.94526 5.98047L5.85639 7.26172C6.21224 7.84858 6.60124 8.35343 7.12299 8.875L7.35053 9.09473C7.79425 9.50832 8.23499 9.83123 8.74018 10.1348L10.0185 9.05078C10.3919 8.73421 10.9403 8.73481 11.3134 9.05176L13.4677 10.8828C13.8684 11.2234 13.9366 11.8163 13.624 12.2393L12.4814 13.7842C11.7733 14.742 10.5279 15.2721 9.32807 14.8594C7.48711 14.226 5.75819 13.1747 4.28998 11.707C2.82588 10.2434 1.77576 8.52018 1.14154 6.68555C0.723893 5.47663 1.26468 4.22322 2.22748 3.51172L3.75678 2.37793ZM2.82221 4.31641C2.14257 4.81867 1.83766 5.63846 2.08686 6.35938L2.20111 6.67578C2.79526 8.25182 3.72706 9.73048 4.99701 11C6.35548 12.3579 7.95372 13.329 9.65424 13.9141C10.3702 14.1601 11.1816 13.8612 11.6777 13.1904L12.8203 11.6445L10.666 9.81348L8.85346 11.3506L8.55072 11.1807L8.25873 11.0127C7.59216 10.6153 7.01377 10.1796 6.41596 9.58203C5.82298 8.98925 5.37936 8.41116 4.97943 7.74609L4.81049 7.45508L4.63959 7.15137L6.18354 5.33301L4.35346 3.18066L2.82221 4.31641Z" fill="var(------Gray--Dark-7, #676A70)" style="fill:#676A70;fill:color(display-p3 0.4039 0.4157 0.4392);fill-opacity:1;"/>
<path d="M8.49994 3.66992C10.6167 3.6701 12.3337 5.38614 12.3339 7.50293H11.3339C11.3337 5.93842 10.0645 4.6701 8.49994 4.66992V3.66992Z" fill="var(------Gray--Dark-7, #676A70)" style="fill:#676A70;fill:color(display-p3 0.4039 0.4157 0.4392);fill-opacity:1;"/>
<path d="M8.49994 1C12.0898 1 14.9999 3.91015 14.9999 7.5H13.9999C13.9999 4.46243 11.5375 2 8.49994 2V1Z" fill="var(------Gray--Dark-7, #676A70)" style="fill:#676A70;fill:color(display-p3 0.4039 0.4157 0.4392);fill-opacity:1;"/>
</svg>
