<svg width="16" height="16" viewBox="0 0 16 16" fill="none" xmlns="http://www.w3.org/2000/svg">
<path d="M8.45508 12.9795L8 13.0205L7.54492 12.9795C7.53839 12.9789 7.53192 12.9772 7.52539 12.9766C7.68165 12.9913 7.83989 13 8 13C8.15978 13 8.31769 12.9912 8.47363 12.9766C8.46742 12.9771 8.46129 12.9789 8.45508 12.9795ZM7.37305 12.959C7.3427 12.9552 7.3124 12.9516 7.28223 12.9473C7.3124 12.9516 7.3427 12.9552 7.37305 12.959ZM8.7168 12.9473C8.68662 12.9516 8.65633 12.9552 8.62598 12.959C8.65633 12.9552 8.68662 12.9516 8.7168 12.9473ZM7.13672 12.9238C7.10439 12.9182 7.07216 12.9125 7.04004 12.9062C7.07215 12.9125 7.10439 12.9182 7.13672 12.9238ZM8.95898 12.9062C8.92687 12.9125 8.89464 12.9182 8.8623 12.9238C8.89464 12.9182 8.92687 12.9125 8.95898 12.9062ZM6.92871 12.8838C6.88162 12.8735 6.83467 12.8632 6.78809 12.8516C6.83467 12.8632 6.88162 12.8735 6.92871 12.8838ZM9.21094 12.8516C9.16435 12.8632 9.11741 12.8735 9.07031 12.8838C9.1174 12.8735 9.16435 12.8632 9.21094 12.8516ZM6.68359 12.8232C6.64634 12.8131 6.60917 12.803 6.57227 12.792C6.60917 12.803 6.64634 12.8131 6.68359 12.8232ZM9.42676 12.792C9.38985 12.803 9.35269 12.8131 9.31543 12.8232C9.35269 12.8131 9.38985 12.803 9.42676 12.792ZM6.45215 12.7549C6.40949 12.741 6.36734 12.7259 6.3252 12.7109C6.36734 12.7259 6.40949 12.741 6.45215 12.7549ZM9.67383 12.7109C9.63168 12.7259 9.58954 12.741 9.54688 12.7549C9.58954 12.741 9.63168 12.7259 9.67383 12.7109ZM6.24023 12.6797C6.19994 12.6645 6.15991 12.649 6.12012 12.6328C6.15991 12.649 6.19994 12.6645 6.24023 12.6797ZM9.87891 12.6328C9.83911 12.649 9.79909 12.6645 9.75879 12.6797C9.79909 12.6645 9.83911 12.649 9.87891 12.6328ZM6.00391 12.584C5.96593 12.5674 5.92811 12.5507 5.89062 12.5332C5.92811 12.5507 5.96593 12.5674 6.00391 12.584ZM10.1084 12.5332C10.0709 12.5507 10.0331 12.5674 9.99512 12.584C10.0331 12.5674 10.0709 12.5507 10.1084 12.5332ZM5.80566 12.4932C5.75262 12.4672 5.7004 12.4399 5.64844 12.4121C5.7004 12.4399 5.75262 12.4672 5.80566 12.4932ZM10.3506 12.4121C10.2986 12.4399 10.2464 12.4672 10.1934 12.4932C10.2464 12.4672 10.2986 12.4399 10.3506 12.4121ZM5.60254 12.3877C5.55581 12.3621 5.50967 12.3356 5.46387 12.3086C5.50968 12.3356 5.55581 12.3621 5.60254 12.3877ZM10.5352 12.3086C10.4893 12.3356 10.4432 12.3621 10.3965 12.3877C10.4432 12.3621 10.4893 12.3356 10.5352 12.3086ZM5.38281 12.2607C5.3525 12.2421 5.32285 12.2224 5.29297 12.2031C5.32285 12.2224 5.3525 12.2421 5.38281 12.2607ZM10.7061 12.2031C10.6762 12.2224 10.6465 12.2421 10.6162 12.2607C10.6465 12.2421 10.6762 12.2224 10.7061 12.2031ZM5.00586 12.0049C4.96038 11.9708 4.91633 11.935 4.87207 11.8994C4.91633 11.935 4.96038 11.9708 5.00586 12.0049ZM10.8965 12.0732C10.8703 12.0919 10.8449 12.1117 10.8184 12.1299C10.8449 12.1117 10.8703 12.0919 10.8965 12.0732ZM4.34082 11.4062C4.40485 11.475 4.47129 11.5414 4.53906 11.6064C4.47129 11.5414 4.40485 11.475 4.34082 11.4062ZM11.6846 11.3789C11.6126 11.4573 11.5377 11.5328 11.4609 11.6064C11.5377 11.5328 11.6126 11.4573 11.6846 11.3789ZM8 1.5C9.65685 1.50001 11 2.84315 11 4.5V8C11 9.65685 9.65685 11 8 11C6.34315 11 5 9.65685 5 8V4.5C5 2.84315 6.34315 1.5 8 1.5ZM4.21582 11.2666C4.19606 11.2437 4.1756 11.2215 4.15625 11.1982C4.1756 11.2215 4.19606 11.2437 4.21582 11.2666ZM11.8428 11.1982C11.8234 11.2215 11.803 11.2437 11.7832 11.2666C11.803 11.2437 11.8234 11.2215 11.8428 11.1982ZM4.09082 11.1152C4.06032 11.077 4.02939 11.0391 4 11C4.02939 11.0391 4.06032 11.077 4.09082 11.1152ZM12 11C11.9705 11.0393 11.9388 11.0769 11.9082 11.1152C11.9388 11.0769 11.9705 11.0393 12 11ZM3.92969 10.9023C3.91205 10.8777 3.89415 10.8531 3.87695 10.8281C3.89415 10.8531 3.91205 10.8777 3.92969 10.9023ZM12.123 10.8281C12.1058 10.8531 12.088 10.8777 12.0703 10.9023C12.088 10.8777 12.1058 10.8531 12.123 10.8281ZM3.78516 10.6895C3.77499 10.6736 3.76487 10.6576 3.75488 10.6416C3.76487 10.6576 3.77499 10.6736 3.78516 10.6895ZM12.2441 10.6416C12.2342 10.6575 12.2249 10.6737 12.2148 10.6895C12.2249 10.6737 12.2342 10.6575 12.2441 10.6416ZM3.67969 10.5156C3.66073 10.4831 3.64129 10.4509 3.62305 10.418C3.64129 10.4509 3.66073 10.4831 3.67969 10.5156ZM12.376 10.418C12.3578 10.4508 12.3392 10.4833 12.3203 10.5156C12.3392 10.4833 12.3578 10.4508 12.376 10.418ZM3.57812 10.333C3.55636 10.2918 3.53431 10.2508 3.51367 10.209C3.53431 10.2508 3.55636 10.2918 3.57812 10.333ZM12.4854 10.209C12.4648 10.2507 12.4436 10.292 12.4219 10.333C12.4436 10.292 12.4648 10.2507 12.4854 10.209ZM3.4707 10.1191C3.45236 10.08 3.43435 10.0407 3.41699 10.001C3.43435 10.0407 3.45236 10.08 3.4707 10.1191ZM12.582 10.001C12.5647 10.0407 12.5467 10.08 12.5283 10.1191C12.5467 10.08 12.5647 10.0407 12.582 10.001ZM3.37305 9.89746C3.35331 9.84937 3.33468 9.80078 3.31641 9.75195C3.33468 9.80078 3.35331 9.84937 3.37305 9.89746ZM12.6836 9.75195C12.6653 9.80089 12.6458 9.84926 12.626 9.89746C12.6458 9.84926 12.6653 9.80089 12.6836 9.75195ZM3.29395 9.69043C3.27688 9.64293 3.26077 9.59503 3.24512 9.54688C3.26077 9.59503 3.27688 9.64293 3.29395 9.69043ZM12.7549 9.54688C12.7392 9.59503 12.7231 9.64293 12.7061 9.69043C12.7231 9.64293 12.7392 9.59503 12.7549 9.54688ZM3.20508 9.41992C3.1934 9.38044 3.18259 9.34066 3.17188 9.30078C3.18259 9.34066 3.1934 9.38044 3.20508 9.41992ZM12.8281 9.30078C12.8174 9.34066 12.8066 9.38044 12.7949 9.41992C12.8066 9.38044 12.8174 9.34066 12.8281 9.30078ZM3.14648 9.20312C3.13386 9.15202 3.12237 9.10054 3.11133 9.04883C3.12237 9.10054 3.13386 9.15201 3.14648 9.20312ZM12.8887 9.04883C12.8776 9.10054 12.8661 9.15202 12.8535 9.20312C12.8661 9.15201 12.8776 9.10054 12.8887 9.04883ZM3.0957 8.97852C3.0882 8.94068 3.08282 8.90239 3.07617 8.86426C3.08282 8.90239 3.0882 8.94068 3.0957 8.97852ZM12.9238 8.86426C12.9172 8.90246 12.9108 8.94062 12.9033 8.97852C12.9108 8.94062 12.9172 8.90246 12.9238 8.86426ZM5.18066 12.1299C5.13769 12.1005 5.09571 12.0698 5.05371 12.0391C5.09571 12.0697 5.13769 12.1005 5.18066 12.1299ZM11.1279 11.8994C11.0836 11.935 11.0387 11.9698 10.9932 12.0039C11.0387 11.9698 11.0836 11.935 11.1279 11.8994Z" stroke="var(------Gray--Dark-7, #676A70)" style="stroke:#676A70;stroke:color(display-p3 0.4039 0.4157 0.4392);stroke-opacity:1;"/>
</svg>
