<svg width="16" height="16" viewBox="0 0 16 16" fill="none" xmlns="http://www.w3.org/2000/svg">
<path fill-rule="evenodd" clip-rule="evenodd" d="M1 3.5C1 2.94771 1.44772 2.5 2 2.5H11C11.5523 2.5 12 2.94772 12 3.5V4.6173L14.0586 3.85973C14.5155 3.69157 15.0003 4.02974 15.0003 4.51666V11.4832C15.0003 11.9701 14.5155 12.3083 14.0586 12.1401L12 11.3826V12.5C12 13.0523 11.5523 13.5 11 13.5H2C1.44771 13.5 1 13.0523 1 12.5V3.5ZM2 3.5H11V12.5H2L2 3.5ZM12 10.3171L14.0003 11.0532V4.94673L12 5.68286V10.3171Z" fill="var(------Gray--Dark-7, #676A70)" style="fill:#676A70;fill:color(display-p3 0.4039 0.4157 0.4392);fill-opacity:1;"/>
<path fill-rule="evenodd" clip-rule="evenodd" d="M6.86785 6.42195H3.72499V5.42195H6.86785V6.42195Z" fill="var(------Gray--Dark-7, #676A70)" style="fill:#676A70;fill:color(display-p3 0.4039 0.4157 0.4392);fill-opacity:1;"/>
</svg>
