<svg width="16" height="16" viewBox="0 0 16 16" fill="none" xmlns="http://www.w3.org/2000/svg">
<path d="M8.00087 2.54527C9.63177 1.11236 12.1175 1.17437 13.6744 2.73129C15.2959 4.35279 15.2959 6.98177 13.6744 8.60327L10.1911 12.0866L10.1906 12.0861L8.00001 14.2767L3.14712 9.42383L2.32615 8.60226C2.32609 8.6022 2.3262 8.60232 2.32615 8.60226C0.704817 6.98075 0.704704 4.35173 2.32615 2.73029C3.88344 1.173 6.36998 1.11133 8.00087 2.54527ZM10.1905 10.2016L12.7316 7.66046C13.8324 6.55966 13.8324 4.7749 12.7316 3.6741C11.6308 2.5733 9.84608 2.5733 8.74528 3.6741L8.00015 4.41793L7.25531 3.6731C6.15451 2.57229 4.36976 2.57229 3.26896 3.6731C2.16815 4.7739 2.16815 6.55865 3.26896 7.65945L4.08993 8.48102L8.00001 12.3911L10.19 10.2011L10.1905 10.2016Z" fill="black" fill-opacity="0.9" style="fill:black;fill-opacity:0.9;"/>
</svg>
