<svg width="16" height="16" viewBox="0 0 16 16" fill="none" xmlns="http://www.w3.org/2000/svg">
<path d="M8.00004 2.66683C5.90326 2.66683 4.11359 3.47439 3.66199 5.1428C3.51915 5.6705 3.42131 6.19681 3.37156 6.66683L12.6285 6.66683C12.5789 6.19759 12.4813 5.67223 12.3388 5.1454C11.8871 3.47504 10.0981 2.66683 8.00004 2.66683ZM13.3334 8.00016L2.66671 8.00016C2.66671 10.9457 5.05452 13.3335 8.00004 13.3335C10.9456 13.3335 13.3334 10.9457 13.3334 8.00016ZM2.03188 6.66683C2.08512 6.07621 2.20354 5.42775 2.37497 4.79443C3.06974 2.22767 5.70924 1.3335 8.00004 1.3335C10.293 1.3335 12.9314 2.22889 13.6259 4.79736C13.7969 5.42973 13.915 6.0771 13.9682 6.66683H14.6667V8.00016C14.6667 11.6821 11.6819 14.6668 8.00004 14.6668C4.31814 14.6668 1.33337 11.6821 1.33337 8.00016V6.66683H2.03188ZM7.33207 3.33219H8.66801V4.66813H7.33207V3.33219ZM5.33207 4.66553H6.66801V6.00146H5.33207V4.66553ZM9.33207 4.66553H10.668V6.00146H9.33207V4.66553Z" fill="black" fill-opacity="0.9" style="fill:black;fill-opacity:0.9;"/>
</svg>
