<svg width="24" height="24" viewBox="0 0 24 24" fill="none" xmlns="http://www.w3.org/2000/svg">
<path d="M22.0316 3.37759L18.7384 6.67082L20.8571 6.71637L20.8141 8.71591L15.3956 8.59941L15.279 3.18084L17.2786 3.13784L17.3241 5.25661L20.6174 1.96338L22.0316 3.37759ZM1 1.99982H9.57995L11.0668 8.69043L9.2078 10.5494C10.2994 12.2506 11.7492 13.7004 13.4504 14.792L15.3094 12.9331L22 14.4199V22.9998H21C17.0022 22.9998 13.2755 21.8258 10.1497 19.8034C7.76894 18.2631 5.73668 16.2309 4.1964 13.8502C2.17402 10.7243 1 6.99763 1 2.99982V1.99982ZM3.02729 3.99982C3.20351 7.22059 4.22584 10.2138 5.87561 12.7638C7.26238 14.9072 9.09261 16.7374 11.2361 18.1242C13.786 19.774 16.7792 20.7963 20 20.9725V16.0242L15.9473 15.1236L13.7725 17.2984L13.1102 16.9223C10.5952 15.4941 8.50568 13.4046 7.07755 10.8896L6.70146 10.2273L8.87621 8.05254L7.97561 3.99982H3.02729Z" fill="black" fill-opacity="0.9" style="fill:black;fill-opacity:0.9;"/>
</svg>
