<svg width="24" height="24" viewBox="0 0 24 24" fill="none" xmlns="http://www.w3.org/2000/svg">
<path d="M3.99988 8C3.99988 3.58172 7.5816 0 11.9999 0C16.4182 0 19.9999 3.58172 19.9999 8V12.6972L21.9999 15.6972V20H16.3884C15.9336 22.004 14.1415 23.5 11.9999 23.5C9.85829 23.5 8.06612 22.004 7.61139 20H1.99988V15.6972L3.99988 12.6972V8ZM9.7079 20C10.0937 20.883 10.9747 21.5 11.9999 21.5C13.025 21.5 13.9061 20.883 14.2919 20H9.7079ZM11.9999 2C8.68617 2 5.99988 4.68629 5.99988 8V13.3028L3.99988 16.3028V18H19.9999V16.3028L17.9999 13.3028V8C17.9999 4.68629 15.3136 2 11.9999 2Z" fill="black" fill-opacity="0.9" style="fill:black;fill-opacity:0.9;"/>
</svg>
