<svg width="20" height="20" viewBox="0 0 20 20" fill="none" xmlns="http://www.w3.org/2000/svg">
<path d="M18.1025 2.50488C18.6067 2.55621 19 2.98232 19 3.5V16.5C19 17.0177 18.6067 17.4438 18.1025 17.4951L18 17.5H2C1.48232 17.5 1.05621 17.1067 1.00488 16.6025L1 16.5V3.5C1 2.94772 1.44772 2.5 2 2.5H18L18.1025 2.50488ZM10.9814 12.2393C10.3881 12.6421 9.60898 12.642 9.01562 12.2393L2.5 7.81445V16H17.5V7.81152L10.9814 12.2393ZM2.89844 4.25C2.76037 4.25 2.64844 4.36193 2.64844 4.5V6.10254L9.8584 10.998C9.9431 11.0554 10.054 11.0555 10.1387 10.998L17.3486 6.10254V4.5C17.3486 4.36199 17.2366 4.25011 17.0986 4.25H2.89844Z" fill="white" fill-opacity="0.9" style="fill:white;fill-opacity:0.9;"/>
</svg>
