<svg width="12" height="12" viewBox="0 0 12 12" fill="none" xmlns="http://www.w3.org/2000/svg">
<g clip-path="url(#clip0_8812_4434)">
<path d="M7.56301 2C7.78503 1.13739 8.56808 0.5 9.5 0.5C10.6046 0.5 11.5 1.39543 11.5 2.5C11.5 3.60457 10.6046 4.5 9.5 4.5C8.56808 4.5 7.78503 3.86261 7.56301 3H7C6.72386 3 6.5 3.22386 6.5 3.5V8.5C6.5 8.77614 6.72386 9 7 9H7.56301C7.78503 8.13739 8.56808 7.5 9.5 7.5C10.6046 7.5 11.5 8.39543 11.5 9.5C11.5 10.6046 10.6046 11.5 9.5 11.5C8.56808 11.5 7.78503 10.8626 7.56301 10H7C6.17157 10 5.5 9.32843 5.5 8.5V6.5L4.43699 6.5C4.21497 7.36261 3.43192 8 2.5 8C1.39543 8 0.5 7.10457 0.5 6C0.5 4.89543 1.39543 4 2.5 4C3.43192 4 4.21497 4.63739 4.43699 5.5L5.5 5.5V3.5C5.5 2.67157 6.17157 2 7 2H7.56301ZM9.5 1.5C8.94772 1.5 8.5 1.94771 8.5 2.5C8.5 3.05229 8.94772 3.5 9.5 3.5C10.0523 3.5 10.5 3.05228 10.5 2.5C10.5 1.94772 10.0523 1.5 9.5 1.5ZM2.5 5C1.94772 5 1.5 5.44772 1.5 6C1.5 6.55228 1.94772 7 2.5 7C3.05229 7 3.5 6.55228 3.5 6C3.5 5.44772 3.05229 5 2.5 5ZM9.5 8.5C8.94772 8.5 8.5 8.94771 8.5 9.5C8.5 10.0523 8.94772 10.5 9.5 10.5C10.0523 10.5 10.5 10.0523 10.5 9.5C10.5 8.94772 10.0523 8.5 9.5 8.5Z" fill="#0034B5" style="fill:#0034B5;fill:color(display-p3 0.0000 0.2039 0.7098);fill-opacity:1;"/>
</g>
<defs>
<clipPath id="clip0_8812_4434">
<rect width="12" height="12" fill="white" style="fill:white;fill-opacity:1;"/>
</clipPath>
</defs>
</svg>
