<svg width="16" height="16" viewBox="0 0 16 16" fill="none" xmlns="http://www.w3.org/2000/svg">
<g clip-path="url(#clip0_8816_4362)">
<path fill-rule="evenodd" clip-rule="evenodd" d="M8 13.9998C11.3137 13.9998 14 11.3136 14 7.99984C14 4.68613 11.3137 1.99984 8 1.99984C4.68629 1.99984 2 4.68613 2 7.99984C2 11.3136 4.68629 13.9998 8 13.9998ZM15.3333 7.99984C15.3333 12.0499 12.0501 15.3332 8 15.3332C3.94991 15.3332 0.666664 12.0499 0.666664 7.99984C0.666664 3.94975 3.94991 0.666504 8 0.666504C12.0501 0.666505 15.3333 3.94975 15.3333 7.99984ZM11.3333 8.6665H4.66666V7.33317H11.3333V8.6665Z" fill="#727A8A" style="fill:#727A8A;fill:color(display-p3 0.4482 0.4777 0.5400);fill-opacity:1;"/>
</g>
<defs>
<clipPath id="clip0_8816_4362">
<rect width="16" height="16" fill="white" style="fill:white;fill-opacity:1;"/>
</clipPath>
</defs>
</svg>
