<svg width="16" height="16" viewBox="0 0 16 16" fill="none" xmlns="http://www.w3.org/2000/svg">
<g clip-path="url(#clip0_8816_4365)">
<path fill-rule="evenodd" clip-rule="evenodd" d="M2 7.99984C2 11.3136 4.68627 13.9998 8 13.9998C11.3137 13.9998 14 11.3136 14 7.99984C14 4.68613 11.3137 1.99984 8 1.99984C4.68627 1.99984 2 4.68613 2 7.99984ZM8 15.3332C3.94994 15.3332 0.666668 12.0499 0.666668 7.99984C0.666668 3.94975 3.94994 0.666504 8 0.666504C12.0501 0.666504 15.3333 3.94975 15.3333 7.99984C15.3333 12.0499 12.0501 15.3332 8 15.3332ZM4.66667 7.33317L7.33334 7.33317L7.33334 4.6665L8.66667 4.6665L8.66667 7.33317L11.3333 7.33317L11.3333 8.6665L8.66667 8.6665L8.66667 11.3332L7.33334 11.3332L7.33334 8.6665L4.66667 8.6665L4.66667 7.33317Z" fill="#727A8A" style="fill:#727A8A;fill:color(display-p3 0.4482 0.4777 0.5400);fill-opacity:1;"/>
</g>
<defs>
<clipPath id="clip0_8816_4365">
<rect width="16" height="16" fill="white" style="fill:white;fill-opacity:1;" transform="translate(16) rotate(90)"/>
</clipPath>
</defs>
</svg>
