<svg width="16" height="16" viewBox="0 0 16 16" fill="none" xmlns="http://www.w3.org/2000/svg">
<path d="M15.3331 7.33317C15.3331 3.65127 12.3484 0.666504 8.66646 0.666504V1.99984C11.612 1.99984 13.9998 4.38765 13.9998 7.33317H15.3331Z" fill="#99A2B2" style="fill:#99A2B2;fill:color(display-p3 0.6003 0.6361 0.6980);fill-opacity:1;"/>
<path d="M12.6665 7.33317C12.6665 5.12403 10.8756 3.33317 8.66646 3.33317V4.6665C10.1392 4.6665 11.3331 5.86041 11.3331 7.33317H12.6665Z" fill="#99A2B2" style="fill:#99A2B2;fill:color(display-p3 0.6003 0.6361 0.6980);fill-opacity:1;"/>
<path fill-rule="evenodd" clip-rule="evenodd" d="M4.3667 1.75846L3.86544 2.13188L4.26372 2.6665C3.86544 2.13188 3.86545 2.13188 3.86544 2.13188L3.70148 2.25394C3.5971 2.33161 3.44802 2.44249 3.26929 2.57528C2.91176 2.84091 2.43578 3.19407 1.96157 3.54449C0.951372 4.29096 0.371529 5.6164 0.817633 6.90687C1.45993 8.76488 2.5231 10.5093 4.00549 11.9912C5.49212 13.4773 7.24289 14.5419 9.10746 15.1833C10.3879 15.6238 11.7055 15.0558 12.449 14.0501L14.2395 11.628L10.4993 8.44998L8.55781 10.0967C8.02014 9.76491 7.55599 9.40534 7.07377 8.92329C6.59296 8.44265 6.22709 7.9781 5.89475 7.4456L7.54766 5.49944L4.3667 1.75846ZM2.75396 4.61682C3.22944 4.26547 3.70643 3.91156 4.06446 3.64555L4.16046 3.57422L5.7979 5.49994L4.27031 7.29855L4.49817 7.70323C4.95041 8.5064 5.44162 9.177 6.13113 9.86626C6.82685 10.5617 7.49781 11.0415 8.3022 11.4926L8.70625 11.7192L10.4986 10.199L12.4267 11.8373L11.3768 13.2575C10.916 13.8808 10.1768 14.1412 9.54121 13.9225C7.86399 13.3455 6.28836 12.3879 4.94813 11.0482C3.61173 9.71225 2.6555 8.14239 2.07779 6.47124C1.85669 5.83165 2.12146 5.0842 2.75396 4.61682Z" fill="#99A2B2" style="fill:#99A2B2;fill:color(display-p3 0.6003 0.6361 0.6980);fill-opacity:1;"/>
</svg>
