<svg width="16" height="16" viewBox="0 0 16 16" fill="none" xmlns="http://www.w3.org/2000/svg">
<g clip-path="url(#clip0_8816_4301)">
<path fill-rule="evenodd" clip-rule="evenodd" d="M5.66659 2.66683C4.56202 2.66683 3.66659 3.56226 3.66659 4.66683C3.66659 5.7714 4.56202 6.66683 5.66659 6.66683C6.77116 6.66683 7.66659 5.7714 7.66659 4.66683C7.66659 3.56226 6.77116 2.66683 5.66659 2.66683ZM2.33326 4.66683C2.33326 2.82588 3.82564 1.3335 5.66659 1.3335C7.50754 1.3335 8.99993 2.82588 8.99993 4.66683C8.99993 6.50778 7.50754 8.00016 5.66659 8.00016C3.82564 8.00016 2.33326 6.50778 2.33326 4.66683ZM9.66659 1.3335H10.3333C12.1742 1.3335 13.6666 2.82588 13.6666 4.66683C13.6666 6.50778 12.1742 8.00016 10.3333 8.00016H9.66659V6.66683H10.3333C11.4378 6.66683 12.3333 5.7714 12.3333 4.66683C12.3333 3.56226 11.4378 2.66683 10.3333 2.66683H9.66659V1.3335ZM-7.43866e-05 12.6668C-7.43866e-05 10.8259 1.49231 9.3335 3.33326 9.3335H7.99993C9.84088 9.3335 11.3333 10.8259 11.3333 12.6668V13.6668H9.99993V12.6668C9.99993 11.5623 9.1045 10.6668 7.99993 10.6668H3.33326C2.22869 10.6668 1.33326 11.5623 1.33326 12.6668V13.6668H-7.43866e-05V12.6668ZM11.9999 10.6668V9.3335H12.6666C14.5075 9.3335 15.9999 10.8259 15.9999 12.6668V13.6668H14.6666V12.6668C14.6666 11.5623 13.7712 10.6668 12.6666 10.6668H11.9999Z" fill="#99A2B2" style="fill:#99A2B2;fill:color(display-p3 0.6003 0.6361 0.6980);fill-opacity:1;"/>
</g>
<defs>
<clipPath id="clip0_8816_4301">
<rect width="16" height="16" fill="white" style="fill:white;fill-opacity:1;"/>
</clipPath>
</defs>
</svg>
