<svg width="16" height="16" viewBox="0 0 16 16" fill="none" xmlns="http://www.w3.org/2000/svg">
<path d="M7.99992 2.66683C5.90314 2.66683 4.11347 3.47439 3.66186 5.1428C3.51903 5.6705 3.42119 6.19681 3.37144 6.66683L12.6284 6.66683C12.5787 6.19759 12.4811 5.67223 12.3387 5.1454C11.887 3.47504 10.098 2.66683 7.99992 2.66683ZM13.3333 8.00016L2.66659 8.00016C2.66659 10.9457 5.0544 13.3335 7.99992 13.3335C10.9454 13.3335 13.3333 10.9457 13.3333 8.00016ZM2.03176 6.66683C2.085 6.07621 2.20342 5.42775 2.37485 4.79443C3.06962 2.22767 5.70912 1.3335 7.99992 1.3335C10.2929 1.3335 12.9313 2.22889 13.6258 4.79736C13.7968 5.42973 13.9149 6.0771 13.9681 6.66683H14.6666V8.00016C14.6666 11.6821 11.6818 14.6668 7.99992 14.6668C4.31802 14.6668 1.33325 11.6821 1.33325 8.00016V6.66683H2.03176ZM7.33195 3.33219H8.66789V4.66813H7.33195V3.33219ZM5.33195 4.66553H6.66789V6.00146H5.33195V4.66553ZM9.33195 4.66553H10.6679V6.00146H9.33195V4.66553Z" fill="black" fill-opacity="0.9" style="fill:black;fill-opacity:0.9;"/>
</svg>
