<svg width="23" height="22" viewBox="0 0 23 22" fill="none" xmlns="http://www.w3.org/2000/svg">
<circle cx="10.2343" cy="12.0869" r="8.63451" transform="rotate(-6.87348 10.2343 12.0869)" fill="url(#paint0_linear_8787_463763)"/>
<mask id="mask0_8787_463763" style="mask-type:alpha" maskUnits="userSpaceOnUse" x="1" y="3" width="18" height="18">
<circle cx="10.2343" cy="12.0928" r="8.63451" transform="rotate(-6.87348 10.2343 12.0928)" fill="url(#paint1_linear_8787_463763)"/>
</mask>
<g mask="url(#mask0_8787_463763)">
<g filter="url(#filter0_f_8787_463763)">
<path d="M5.24268 19.3982C5.24268 19.3982 7.24789 19.1175 7.69718 18.6807C7.69718 18.98 8.15872 19.5207 8.756 19.9741C9.35328 20.4276 10.1813 20.8225 10.1813 20.8225L6.84929 21.0703L5.24268 19.3982Z" fill="#0D8766" style="fill:#0D8766;fill:color(display-p3 0.0499 0.5285 0.4006);fill-opacity:1;"/>
</g>
<g opacity="0.35" filter="url(#filter1_f_8787_463763)">
<path fill-rule="evenodd" clip-rule="evenodd" d="M17.7663 17.2403C18.3381 12.5093 13.9997 8.10485 8.07644 7.40324C7.29366 7.31054 6.5221 7.28982 5.77162 7.32994C6.60713 3.57832 9.91776 0.817728 13.9557 0.84434C18.7199 0.875864 22.6896 4.77507 22.8218 9.55331C22.9212 13.1553 20.8111 16.2278 17.7257 17.509C17.74 17.4198 17.7554 17.3306 17.7663 17.2403Z" fill="white" style="fill:white;fill-opacity:1;"/>
</g>
<g opacity="0.3" filter="url(#filter2_f_8787_463763)">
<path fill-rule="evenodd" clip-rule="evenodd" d="M4.69081 4.79093C3.87185 9.34842 6.1979 13.9857 10.4772 15.7509C12.7449 16.6863 15.1629 16.6491 17.3078 15.8345C15.649 20.1194 11.4757 22.8373 7.30358 22.0796C2.60273 21.2258 -0.313055 16.284 0.791492 11.0428C1.3431 8.42593 2.79245 6.22853 4.69081 4.79093Z" fill="#07785B" style="fill:#07785B;fill:color(display-p3 0.0257 0.4687 0.3565);fill-opacity:1;"/>
</g>
<g opacity="0.5" filter="url(#filter3_f_8787_463763)">
<path d="M-0.375488 12.0889C1.64487 15.1616 4.87824 17.564 8.83176 18.5556C12.5626 19.4913 16.2603 19.0004 19.2889 17.4441C17.0451 20.6639 13.6187 22.7109 9.90114 22.6219C4.55331 22.4936 0.362527 17.9914 -0.375488 12.0889Z" fill="#07785B" style="fill:#07785B;fill:color(display-p3 0.0257 0.4687 0.3565);fill-opacity:1;"/>
</g>
<g opacity="0.4" filter="url(#filter4_f_8787_463763)">
<path d="M21.6748 7.52344C19.6541 4.93485 16.5133 2.91851 12.7431 2.09926C9.18006 1.32514 5.70063 1.76207 2.8938 3.09719C4.89689 0.357826 8.06281 -1.39428 11.5817 -1.33733C16.6392 -1.25527 20.7626 2.53325 21.6748 7.52344Z" fill="#39B716" style="fill:#39B716;fill:color(display-p3 0.2235 0.7179 0.0854);fill-opacity:1;"/>
</g>
</g>
<path d="M14.1904 11.4666L13.4843 12.5191C13.3634 12.6993 13.4321 12.9449 13.6289 13.0362L14.8113 13.5849" stroke="var(-----Black-1, black)" style="stroke: var(-----Black-1, black);stroke-opacity:1;" stroke-width="1.76577" stroke-linecap="round"/>
<path d="M8.2644 13.585L9.07582 15.7004" stroke="var(-----Black-1, black)" style="stroke: var(-----Black-1, black);stroke-opacity:1;" stroke-width="1.76577" stroke-linecap="round"/>
<g filter="url(#filter5_f_8787_463763)">
<path d="M3.64896 14.139L7.89199 18.5061C7.89199 18.5061 7.57509 19.0284 5.48409 19.4682C4.07301 19.7651 2.61652 19.7111 1.81853 19.6447C1.50779 19.6188 1.32917 19.2959 1.45709 19.0115L3.64896 14.139Z" fill="url(#paint2_linear_8787_463763)"/>
</g>
<mask id="mask1_8787_463763" style="mask-type:alpha" maskUnits="userSpaceOnUse" x="1" y="14" width="7" height="6">
<path d="M3.64628 14.1449L7.8893 18.512C7.8893 18.512 7.57241 19.0342 5.4814 19.4741C4.07032 19.7709 2.61384 19.717 1.81584 19.6505C1.5051 19.6247 1.32649 19.3018 1.45441 19.0174L3.64628 14.1449Z" fill="url(#paint3_linear_8787_463763)"/>
</mask>
<g mask="url(#mask1_8787_463763)">
<g opacity="0.8" filter="url(#filter6_f_8787_463763)">
<path d="M0.226929 18.9113C0.226929 18.9113 3.3906 19.5786 6.89441 18.7803C7.01594 19.0874 5.62604 20.8352 3.39129 20.8352C0.123458 20.8352 0.226929 18.9113 0.226929 18.9113Z" fill="#0C6B53" style="fill:#0C6B53;fill:color(display-p3 0.0477 0.4206 0.3244);fill-opacity:1;"/>
</g>
<g opacity="0.8" filter="url(#filter7_f_8787_463763)">
<path d="M2.8136 16.1214C3.17399 16.5726 2.51424 18.996 1.42867 19.4292C0.233932 18.5887 0.221062 18.2181 1.00066 16.8997C1.78955 15.5655 2.4532 15.6702 2.8136 16.1214Z" fill="#8EE386" style="fill:#8EE386;fill:color(display-p3 0.5569 0.8902 0.5255);fill-opacity:1;"/>
</g>
</g>
<path d="M19.0712 0.549237C19.6089 1.87511 20.6991 2.8999 22.0556 3.35476C20.7297 3.89248 19.7049 4.9826 19.2501 6.33914C18.7124 5.01327 17.6222 3.98848 16.2657 3.53362C17.5916 2.9959 18.6164 1.90577 19.0712 0.549237Z" fill="var(-----Black-1, black)" style="fill: var(-----Black-1, black);fill-opacity:1;"/>
<defs>
<filter id="filter0_f_8787_463763" x="3.83006" y="17.268" width="7.76396" height="5.21489" filterUnits="userSpaceOnUse" color-interpolation-filters="sRGB">
<feFlood flood-opacity="0" result="BackgroundImageFix"/>
<feBlend mode="normal" in="SourceGraphic" in2="BackgroundImageFix" result="shape"/>
<feGaussianBlur stdDeviation="0.70631" result="effect1_foregroundBlur_8787_463763"/>
</filter>
<filter id="filter1_f_8787_463763" x="2.23993" y="-2.68682" width="24.1166" height="23.7272" filterUnits="userSpaceOnUse" color-interpolation-filters="sRGB">
<feFlood flood-opacity="0" result="BackgroundImageFix"/>
<feBlend mode="normal" in="SourceGraphic" in2="BackgroundImageFix" result="shape"/>
<feGaussianBlur stdDeviation="1.76577" result="effect1_foregroundBlur_8787_463763"/>
</filter>
<filter id="filter2_f_8787_463763" x="-5.09262" y="-0.859463" width="28.051" height="28.716" filterUnits="userSpaceOnUse" color-interpolation-filters="sRGB">
<feFlood flood-opacity="0" result="BackgroundImageFix"/>
<feBlend mode="normal" in="SourceGraphic" in2="BackgroundImageFix" result="shape"/>
<feGaussianBlur stdDeviation="2.82524" result="effect1_foregroundBlur_8787_463763"/>
</filter>
<filter id="filter3_f_8787_463763" x="-3.90704" y="8.55732" width="26.7274" height="17.5983" filterUnits="userSpaceOnUse" color-interpolation-filters="sRGB">
<feFlood flood-opacity="0" result="BackgroundImageFix"/>
<feBlend mode="normal" in="SourceGraphic" in2="BackgroundImageFix" result="shape"/>
<feGaussianBlur stdDeviation="1.76577" result="effect1_foregroundBlur_8787_463763"/>
</filter>
<filter id="filter4_f_8787_463763" x="-0.637751" y="-4.87042" width="25.8441" height="15.9254" filterUnits="userSpaceOnUse" color-interpolation-filters="sRGB">
<feFlood flood-opacity="0" result="BackgroundImageFix"/>
<feBlend mode="normal" in="SourceGraphic" in2="BackgroundImageFix" result="shape"/>
<feGaussianBlur stdDeviation="1.76577" result="effect1_foregroundBlur_8787_463763"/>
</filter>
<filter id="filter5_f_8787_463763" x="0.00266349" y="12.727" width="9.30205" height="8.38188" filterUnits="userSpaceOnUse" color-interpolation-filters="sRGB">
<feFlood flood-opacity="0" result="BackgroundImageFix"/>
<feBlend mode="normal" in="SourceGraphic" in2="BackgroundImageFix" result="shape"/>
<feGaussianBlur stdDeviation="0.70631" result="effect1_foregroundBlur_8787_463763"/>
</filter>
<filter id="filter6_f_8787_463763" x="-1.18606" y="17.3677" width="9.50053" height="4.87993" filterUnits="userSpaceOnUse" color-interpolation-filters="sRGB">
<feFlood flood-opacity="0" result="BackgroundImageFix"/>
<feBlend mode="normal" in="SourceGraphic" in2="BackgroundImageFix" result="shape"/>
<feGaussianBlur stdDeviation="0.70631" result="effect1_foregroundBlur_8787_463763"/>
</filter>
<filter id="filter7_f_8787_463763" x="-0.947532" y="14.4038" width="5.27275" height="6.43754" filterUnits="userSpaceOnUse" color-interpolation-filters="sRGB">
<feFlood flood-opacity="0" result="BackgroundImageFix"/>
<feBlend mode="normal" in="SourceGraphic" in2="BackgroundImageFix" result="shape"/>
<feGaussianBlur stdDeviation="0.70631" result="effect1_foregroundBlur_8787_463763"/>
</filter>
<linearGradient id="paint0_linear_8787_463763" x1="-1.92604" y1="21.0473" x2="23.0424" y2="4.65646" gradientUnits="userSpaceOnUse">
<stop stop-color="#14CCE1" style="stop-color:#14CCE1;stop-color:color(display-p3 0.0795 0.8018 0.8816);stop-opacity:1;"/>
<stop offset="1" stop-color="#99E222" style="stop-color:#99E222;stop-color:color(display-p3 0.5991 0.8874 0.1352);stop-opacity:1;"/>
</linearGradient>
<linearGradient id="paint1_linear_8787_463763" x1="-1.92604" y1="21.0532" x2="23.0424" y2="4.66232" gradientUnits="userSpaceOnUse">
<stop stop-color="#14CCE1" style="stop-color:#14CCE1;stop-color:color(display-p3 0.0795 0.8018 0.8816);stop-opacity:1;"/>
<stop offset="1" stop-color="#99E222" style="stop-color:#99E222;stop-color:color(display-p3 0.5991 0.8874 0.1352);stop-opacity:1;"/>
</linearGradient>
<linearGradient id="paint2_linear_8787_463763" x1="4.70749" y1="16.5396" x2="1.20191" y2="19.5141" gradientUnits="userSpaceOnUse">
<stop stop-color="#2AB48C" style="stop-color:#2AB48C;stop-color:color(display-p3 0.1647 0.7059 0.5490);stop-opacity:1;"/>
<stop offset="1" stop-color="#32D0C0" style="stop-color:#32D0C0;stop-color:color(display-p3 0.1944 0.8151 0.7531);stop-opacity:1;"/>
</linearGradient>
<linearGradient id="paint3_linear_8787_463763" x1="4.70481" y1="16.5455" x2="1.19923" y2="19.52" gradientUnits="userSpaceOnUse">
<stop stop-color="#2AB48C" style="stop-color:#2AB48C;stop-color:color(display-p3 0.1647 0.7059 0.5490);stop-opacity:1;"/>
<stop offset="1" stop-color="#32D0C0" style="stop-color:#32D0C0;stop-color:color(display-p3 0.1944 0.8151 0.7531);stop-opacity:1;"/>
</linearGradient>
</defs>
</svg>
