<svg width="16" height="16" viewBox="0 0 16 16" fill="none" xmlns="http://www.w3.org/2000/svg">
<path d="M7.54252 2.07592C8.84427 0.774172 10.9548 0.774173 12.2566 2.07592C13.5583 3.37767 13.5583 5.48822 12.2566 6.78997L7.07112 11.9754C6.29007 12.7565 5.02374 12.7565 4.24269 11.9754C3.46164 11.1944 3.46164 9.92804 4.24269 9.14699L9.42814 3.96154L10.3709 4.90435L5.1855 10.0898C4.92515 10.3501 4.92515 10.7723 5.1855 11.0326C5.44585 11.293 5.86796 11.293 6.12831 11.0326L11.3138 5.84716C12.0948 5.06611 12.0948 3.79978 11.3138 3.01873C10.5327 2.23768 9.26638 2.23768 8.48533 3.01873L3.29988 8.20418C1.99813 9.50593 1.99813 11.6165 3.29988 12.9182C4.60163 14.22 6.71218 14.22 8.01392 12.9182L13.6708 7.26137L14.6136 8.20418L8.95673 13.861C7.13429 15.6835 4.17952 15.6835 2.35707 13.861C0.534623 12.0386 0.534622 9.08382 2.35707 7.26137L7.54252 2.07592Z" fill="black" fill-opacity="0.9" style="fill:black;fill-opacity:0.9;"/>
</svg>
