<svg width="32" height="32" viewBox="0 0 32 32" fill="none" xmlns="http://www.w3.org/2000/svg">
<path d="M16 0C24.8366 0 32 7.16344 32 16C32 24.8366 24.8366 32 16 32C7.16344 32 0 24.8366 0 16C0 7.16344 7.16344 0 16 0ZM16 10C13.1716 10 11.7576 10.0002 10.8789 10.8789C10.0002 11.7576 10 13.1716 10 16C10 18.8284 10.0002 20.2424 10.8789 21.1211C11.7576 21.9998 13.1716 22 16 22C18.8284 22 20.2424 21.9998 21.1211 21.1211C21.9998 20.2424 22 18.8284 22 16C22 13.1716 21.9998 11.7576 21.1211 10.8789C20.2424 10.0002 18.8284 10 16 10Z" fill="black" fill-opacity="0.75" style="fill:black;fill-opacity:0.75;"/>
</svg>
