<svg width="16" height="16" viewBox="0 0 16 16" fill="none" xmlns="http://www.w3.org/2000/svg">
<g opacity="0.4">
<path d="M14.3174 13.0875C14.6845 13.0875 14.9822 13.3855 14.9824 13.7526C14.9824 14.1198 14.6847 14.4176 14.3174 14.4176H8.20412C7.83704 14.4174 7.53908 14.1197 7.53908 13.7526C7.53931 13.3856 7.83718 13.0878 8.20412 13.0875H14.3174ZM9.93654 1.48109C10.3636 1.13245 10.98 1.13275 11.4072 1.48109L11.4961 1.56117L13.5947 3.65883C14.0496 4.11367 14.0494 4.8513 13.5947 5.30629L5.58498 13.3161C5.42139 13.4794 5.21226 13.5909 4.98537 13.6354L2.40627 14.1413C1.59937 14.2993 0.88636 13.5943 1.03615 12.7858L1.51955 10.1793L1.56447 10.0094C1.62186 9.84418 1.71618 9.69284 1.84084 9.56801L9.84865 1.56117L9.93654 1.48109ZM2.8174 10.4713L2.38771 12.7897L4.68068 12.3385L10.3985 6.61977L8.5342 4.75453L2.8174 10.4713ZM9.47463 3.8141L11.3389 5.67934L12.5371 4.48207L10.6719 2.61781L9.47463 3.8141Z" fill="var(---------text-color-secondary, #676A70)" style="fill:#676A70;fill:color(display-p3 0.4039 0.4157 0.4392);fill-opacity:1;"/>
</g>
</svg>
