<svg width="18" height="12" viewBox="0 0 18 12" fill="none" xmlns="http://www.w3.org/2000/svg">
<g clip-path="url(#clip0_8734_460654)">
<path d="M18 0H0V11.25H18V0Z" fill="#DE2910" style="fill:#DE2910;fill:color(display-p3 0.8706 0.1608 0.0627);fill-opacity:1;"/>
<path d="M2.99989 0.887695L4.05769 4.10105L1.28809 2.11513H4.71169L1.94209 4.10105L2.99989 0.887695Z" fill="#FFDE00" style="fill:#FFDE00;fill:color(display-p3 1.0000 0.8706 0.0000);fill-opacity:1;"/>
<path d="M5.48535 1.19185L6.23475 0.342773L6.13455 1.46481L5.54775 0.499089L6.59775 0.939616L5.48535 1.19185Z" fill="#FFDE00" style="fill:#FFDE00;fill:color(display-p3 1.0000 0.8706 0.0000);fill-opacity:1;"/>
<path d="M6.60596 2.15524L7.63076 1.65964L7.09736 2.65497L6.93596 1.54004L7.73036 2.34826L6.60596 2.15524Z" fill="#FFDE00" style="fill:#FFDE00;fill:color(display-p3 1.0000 0.8706 0.0000);fill-opacity:1;"/>
<path d="M6.62305 3.68503L7.76305 3.64477L6.86485 4.33931L7.17805 3.25635L7.56925 4.31385L6.62305 3.68503Z" fill="#FFDE00" style="fill:#FFDE00;fill:color(display-p3 1.0000 0.8706 0.0000);fill-opacity:1;"/>
<path d="M5.53142 4.66315L6.59942 5.06045L5.49902 5.35887L6.21182 4.479L6.15842 5.604L5.53142 4.66315Z" fill="#FFDE00" style="fill:#FFDE00;fill:color(display-p3 1.0000 0.8706 0.0000);fill-opacity:1;"/>
</g>
<defs>
<clipPath id="clip0_8734_460654">
<rect width="18" height="11.25" fill="white" style="fill:white;fill-opacity:1;"/>
</clipPath>
</defs>
</svg>
