<svg width="12" height="12" viewBox="0 0 12 12" fill="none" xmlns="http://www.w3.org/2000/svg">
<path d="M4.81321 1.54905C5.24583 1.30296 5.46215 1.17991 5.69177 1.13172C5.89496 1.08907 6.10479 1.08907 6.30798 1.13172C6.53761 1.17991 6.75392 1.30296 7.18654 1.54905L9.29228 2.74689C9.73414 2.99824 9.95507 3.12391 10.1158 3.30085C10.258 3.45739 10.3656 3.64224 10.4313 3.84326C10.5056 4.07047 10.5056 4.32465 10.5056 4.83299V7.16731C10.5056 7.67566 10.5056 7.92983 10.4313 8.15704C10.3656 8.35807 10.258 8.54292 10.1158 8.69946C9.95507 8.87639 9.73414 9.00207 9.29228 9.25342L7.18654 10.4513C6.75392 10.6973 6.53761 10.8204 6.30798 10.8686C6.10479 10.9112 5.89496 10.9112 5.69177 10.8686C5.46215 10.8204 5.24583 10.6973 4.81321 10.4513L2.70747 9.25341C2.26561 9.00207 2.04469 8.87639 1.88393 8.69946C1.74171 8.54292 1.63419 8.35807 1.56845 8.15704C1.49414 7.92983 1.49414 7.67566 1.49414 7.16731V4.83299C1.49414 4.32465 1.49414 4.07047 1.56845 3.84326C1.63419 3.64224 1.74171 3.45739 1.88393 3.30085C2.04469 3.12391 2.26561 2.99824 2.70747 2.74689L4.81321 1.54905Z" stroke="var(---------text-color-secondary, #676A70)" style="stroke:#676A70;stroke:color(display-p3 0.4039 0.4157 0.4392);stroke-opacity:1;" stroke-width="0.9975"/>
<circle cx="6.00073" cy="5.99976" r="1.63257" stroke="var(---------text-color-secondary, #676A70)" style="stroke:#676A70;stroke:color(display-p3 0.4039 0.4157 0.4392);stroke-opacity:1;" stroke-width="0.9975"/>
</svg>
