<svg width="16" height="16" viewBox="0 0 16 16" fill="none" xmlns="http://www.w3.org/2000/svg">
<path fill-rule="evenodd" clip-rule="evenodd" d="M9.68542 1.86179C10.0978 2.41062 10.3156 3.18761 10.2752 3.80626L10.1585 5.93696H13.0237C14.0242 5.93696 14.762 6.92337 14.6131 7.89458L14.6126 7.89776L14.5943 7.99592L13.6056 13.3645C13.4496 14.0691 12.8541 14.5817 12.1479 14.6312L12.1445 14.6314L12.0357 14.6352L2.17476 14.6317C1.74126 14.6312 1.3836 14.2914 1.3833 13.8647V7.27524C1.3833 6.84837 1.74113 6.50848 2.1748 6.50848H4.04545L4.91596 6.48871L5.2014 6.47658L5.31122 6.46746L5.32392 6.46532C5.53054 6.41824 5.73329 6.28214 5.9255 6.07448C6.11799 5.8665 6.2944 5.5926 6.44787 5.28305C6.75468 4.66424 6.96305 3.91684 7.02776 3.30542L7.03467 3.20203L7.04983 2.81736L7.06543 2.6316C7.11665 2.15446 7.27811 1.54648 7.87303 1.2947C8.25021 1.13507 8.60038 1.13478 8.91036 1.24917C9.21804 1.36271 9.47834 1.58621 9.68542 1.86179ZM8.54306 2.43522C8.47032 2.38754 8.41639 2.38033 8.37968 2.39057C8.37523 2.39762 8.36885 2.40966 8.36142 2.42835C8.34399 2.47222 8.32462 2.54297 8.30909 2.64777L8.29822 2.73327L8.2859 2.87016L8.26943 3.27887L8.25884 3.42562C8.16617 4.30484 7.86994 5.26984 7.41658 6.05721C6.96488 6.84172 6.34629 7.46781 5.60015 7.63517L5.59613 7.63608L5.50596 7.65234L5.42526 7.66242L5.42001 7.66308L5.32821 7.66967V13.4326L11.9969 13.4356L12.0608 13.434C12.1912 13.424 12.3193 13.3301 12.3767 13.1776L12.3958 13.1124L13.3767 7.78278L13.3769 7.78184L13.3896 7.71615C13.4104 7.57751 13.3735 7.44048 13.3053 7.33293C13.2367 7.22474 13.1443 7.15786 13.0634 7.14126L13.019 7.1371H8.84078L9.04037 3.73139L9.04041 3.73071C9.06648 3.33263 8.94947 2.96097 8.79006 2.70719C8.71017 2.58001 8.62283 2.48752 8.54306 2.43522ZM8.3838 2.38467C8.38429 2.38408 8.38454 2.38383 8.38454 2.38385L8.3838 2.38467ZM4.04927 7.70858L4.09097 7.70746V13.4319L2.61985 13.4313V7.7081L4.04655 7.70862L4.04927 7.70858Z" fill="var(--color-text-secondary, black)" fill-opacity="0.7" style="fill: var(--color-text-secondary, black);fill-opacity:0.7;"/>
</svg>
