<svg width="16" height="16" viewBox="0 0 16 16" fill="none" xmlns="http://www.w3.org/2000/svg">
<path fill-rule="evenodd" clip-rule="evenodd" d="M9.68542 14.1382C10.0978 13.5894 10.3156 12.8124 10.2752 12.1937L10.1585 10.063H13.0237C14.0242 10.063 14.762 9.07664 14.6131 8.10542L14.6126 8.10224L14.5943 8.00408L13.6056 2.63546C13.4496 1.93093 12.8541 1.41834 12.1479 1.36882L12.1445 1.36858L12.0357 1.36483L2.17476 1.36833C1.74126 1.36876 1.3836 1.70856 1.3833 2.13526V8.72476C1.3833 9.15163 1.74113 9.49152 2.1748 9.49152H4.04545L4.91596 9.51129L5.2014 9.52342L5.31122 9.53254L5.32392 9.53468C5.53054 9.58177 5.73329 9.71786 5.9255 9.92553C6.11799 10.1335 6.2944 10.4074 6.44787 10.7169C6.75468 11.3358 6.96305 12.0832 7.02776 12.6946L7.03467 12.798L7.04983 13.1826L7.06543 13.3684C7.11665 13.8455 7.27811 14.4535 7.87303 14.7053C8.25021 14.8649 8.60038 14.8652 8.91036 14.7508C9.21804 14.6373 9.47834 14.4138 9.68542 14.1382ZM8.54306 13.5648C8.47032 13.6125 8.41639 13.6197 8.37968 13.6094C8.37523 13.6024 8.36885 13.5903 8.36142 13.5717C8.34399 13.5278 8.32462 13.457 8.30909 13.3522L8.29822 13.2667L8.2859 13.1298L8.26943 12.7211L8.25884 12.5744C8.16617 11.6952 7.86994 10.7302 7.41658 9.94279C6.96488 9.15828 6.34629 8.53219 5.60015 8.36483L5.59613 8.36393L5.50596 8.34766L5.42526 8.33758L5.42001 8.33692L5.32821 8.33033V2.56737L11.9969 2.56437L12.0608 2.56598C12.1912 2.57601 12.3193 2.66987 12.3767 2.82243L12.3958 2.88756L13.3767 8.21722L13.3769 8.21816L13.3896 8.28385C13.4104 8.42249 13.3735 8.55953 13.3053 8.66707C13.2367 8.77526 13.1443 8.84214 13.0634 8.85874L13.019 8.8629H8.84078L9.04037 12.2686L9.04041 12.2693C9.06648 12.6674 8.94947 13.039 8.79006 13.2928C8.71017 13.42 8.62283 13.5125 8.54306 13.5648ZM8.3838 13.6153C8.38429 13.6159 8.38454 13.6162 8.38454 13.6161L8.3838 13.6153ZM4.04927 8.29142L4.09097 8.29254V2.56812L2.61985 2.56871V8.2919L4.04655 8.29139L4.04927 8.29142Z" fill="var(--color-text-secondary, black)" fill-opacity="0.7" style="fill: var(--color-text-secondary, black);fill-opacity:0.7;"/>
</svg>
