<svg width="16" height="16" viewBox="0 0 16 16" fill="none" xmlns="http://www.w3.org/2000/svg">
<path d="M8 1.71582C11.4703 1.71585 14.2837 4.52886 14.2842 7.99902C14.2842 11.4696 11.4706 14.2832 8 14.2832C5.37541 14.2832 3.12802 12.6746 2.1875 10.3916C2.0616 10.0853 2.20743 9.73456 2.51367 9.6084C2.81987 9.48237 3.17052 9.62855 3.29688 9.93457C4.05864 11.7837 5.8783 13.084 8 13.084C10.8078 13.084 13.084 10.8069 13.084 7.99902C13.0835 5.1916 10.8075 2.91507 8 2.91504C6.21435 2.91504 4.64388 3.83679 3.73633 5.23145H5.15723C5.48843 5.23145 5.75754 5.49991 5.75781 5.83105C5.75781 6.16243 5.4886 6.43164 5.15723 6.43164H2.31543C1.98421 6.43146 1.71582 6.16232 1.71582 5.83105V3.02637C1.71588 2.69515 1.98424 2.42693 2.31543 2.42676C2.64677 2.42676 2.91498 2.69504 2.91504 3.02637V4.31152C4.05666 2.74067 5.90766 1.71582 8 1.71582Z" fill="var(--yb_background_tertiary_mask1, black)" fill-opacity="0.7" style="fill: var(--yb_background_tertiary_mask1, black);fill-opacity:0.7;"/>
</svg>
