<svg width="16" height="16" viewBox="0 0 16 16" fill="none" xmlns="http://www.w3.org/2000/svg">
<path fill-rule="evenodd" clip-rule="evenodd" d="M9.68493 14.1382C10.0973 13.5894 10.3151 12.8124 10.2747 12.1937L10.158 10.063H13.0232C14.0237 10.063 14.7615 9.07664 14.6126 8.10542L14.6121 8.10224L14.5938 8.00408L13.6051 2.63546C13.4491 1.93093 12.8536 1.41834 12.1475 1.36882L12.144 1.36858L12.0352 1.36483L2.17427 1.36833C1.74077 1.36876 1.38311 1.70856 1.38281 2.13526V8.72476C1.38281 9.15163 1.74064 9.49152 2.17431 9.49152H4.04496L4.91547 9.51129L5.20091 9.52342L5.31073 9.53254L5.32343 9.53468C5.53005 9.58177 5.7328 9.71786 5.92501 9.92553C6.1175 10.1335 6.29391 10.4074 6.44738 10.7169C6.75419 11.3358 6.96256 12.0832 7.02727 12.6946L7.03418 12.798L7.04934 13.1826L7.06494 13.3684C7.11617 13.8455 7.27762 14.4535 7.87254 14.7053C8.24972 14.8649 8.5999 14.8652 8.90987 14.7508C9.21755 14.6373 9.47785 14.4138 9.68493 14.1382ZM8.54257 13.5648C8.46983 13.6125 8.4159 13.6197 8.37919 13.6094C8.37474 13.6024 8.36836 13.5903 8.36093 13.5717C8.3435 13.5278 8.32413 13.457 8.3086 13.3522L8.29773 13.2667L8.28541 13.1298L8.26894 12.7211L8.25835 12.5744C8.16568 11.6952 7.86945 10.7302 7.4161 9.94279C6.9644 9.15828 6.3458 8.53219 5.59967 8.36483L5.59564 8.36393L5.50547 8.34766L5.42478 8.33758L5.41953 8.33692L5.32772 8.33033V2.56737L11.9964 2.56437L12.0603 2.56598C12.1908 2.57601 12.3188 2.66987 12.3762 2.82243L12.3953 2.88756L13.3762 8.21722L13.3764 8.21816L13.3891 8.28385C13.4099 8.42249 13.373 8.55953 13.3048 8.66707C13.2362 8.77526 13.1439 8.84214 13.0629 8.85874L13.0185 8.8629H8.8403L9.03988 12.2686L9.03992 12.2693C9.06599 12.6674 8.94898 13.039 8.78957 13.2928C8.70968 13.42 8.62234 13.5125 8.54257 13.5648ZM8.38332 13.6153C8.3838 13.6159 8.38405 13.6162 8.38405 13.6161L8.38332 13.6153ZM4.04879 8.29142L4.09048 8.29254V2.56812L2.61936 2.56871V8.2919L4.04606 8.29139L4.04879 8.29142Z" fill="var(--color-text-secondary, black)" fill-opacity="0.7" style="fill: var(--color-text-secondary, black);fill-opacity:0.7;"/>
</svg>
